{"asset":{"copyright":"","generator":"Source 2 Viewer 11.1.0.0 - https://valveresourceformat.github.io","version":"2.0"},"accessors":[{"bufferView":0,"componentType":5126,"count":571,"max":[13.594191551208496,63.99976348876953,352.34033203125],"min":[-7.141007900238037,-64.00023651123047,-105.6596908569336],"type":"VEC3"},{"bufferView":1,"componentType":5126,"count":571,"max":[0.9975585341453552,0.9980468153953552],"min":[0.002075258642435074,0.008362071588635445],"type":"VEC2"},{"bufferView":2,"componentType":5126,"count":571,"max":[0.9998700022697449,0.9997313618659973,0.9998700022697449],"min":[-1,-0.9998700022697449,-0.9997313618659973],"type":"VEC3"},{"bufferView":3,"componentType":5126,"count":571,"max":[0.999462902545929,1,0.9993062615394592,1],"min":[-0.999462902545929,-0.9998700022697449,-1,-1],"type":"VEC4"},{"bufferView":4,"componentType":5125,"count":300,"type":"SCALAR"},{"bufferView":5,"componentType":5125,"count":2076,"type":"SCALAR"}],"bufferViews":[{"buffer":0,"byteLength":6852,"byteOffset":17440,"target":34962},{"buffer":0,"byteLength":4568,"byteOffset":31144,"target":34962},{"buffer":0,"byteLength":6852,"byteOffset":24292,"target":34962},{"buffer":0,"byteLength":9136,"target":34962},{"buffer":0,"byteLength":1200,"byteOffset":35712,"target":34963},{"buffer":0,"byteLength":8304,"byteOffset":9136,"target":34963}],"buffers":[{"byteLength":36912,"uri":"banner_purple.bin"}],"images":[{"name":"team_banner_radiant_summer_color_psd_d024980b.vtex","uri":"team_banner_radiant_summer_color_psd_d024980b.png"},{"name":"bannerbase_radiant_color_psd_c3bd44e6.vtex","uri":"bannerbase_radiant_color_psd_c3bd44e6.png"},{"name":"bannerbase_radiant_refl_tga_c486e1de.vtex","uri":"bannerbase_radiant_refl_tga_c486e1de.png"}],"materials":[{"extras":{"baseColorTexture":{"index":0}},"name":"team_banner_radiant_summer","alphaCutoff":0.699999988079071,"alphaMode":"MASK","pbrMetallicRoughness":{"baseColorTexture":{"index":0},"metallicFactor":0}},{"extras":{"baseColorTexture":{"index":1}},"name":"bannerbase_radiant","emissiveTexture":{"index":2},"pbrMetallicRoughness":{"baseColorTexture":{"index":1},"metallicFactor":0}}],"meshes":[{"extras":{},"name":"banner_radiant_summer.vmdl_c.banner_radiant_summer","primitives":[{"attributes":{"POSITION":0,"TEXCOORD_0":1,"NORMAL":2,"TANGENT":3},"indices":4,"material":0},{"attributes":{"POSITION":0,"TEXCOORD_0":1,"NORMAL":2,"TANGENT":3},"indices":5,"material":1}]}],"nodes":[{"name":"banner_radiant_summer.vmdl_c.banner_radiant_summer","matrix":[3.027916E-09,0,0.025399996,0,0.025399996,3.027916E-09,0,0,0,0.025399996,3.027916E-09,0,0,0,0,1],"mesh":0}],"samplers":[{"magFilter":9729,"minFilter":9987}],"scenes":[{"name":"banner_radiant_summer.vmdl_c","nodes":[0]}],"textures":[{"name":"team_banner_radiant_summer_color_psd_d024980b.vtex","sampler":0,"source":0},{"name":"bannerbase_radiant_color_psd_c3bd44e6.vtex","sampler":0,"source":1},{"name":"bannerbase_radiant_refl_tga_c486e1de.vtex","sampler":0,"source":2}]}