{"asset":{"copyright":"","generator":"Source 2 Viewer 11.1.0.0 - https://valveresourceformat.github.io","version":"2.0"},"accessors":[{"bufferView":0,"componentType":5126,"count":83,"max":[14.925192832946777,45.0582160949707,299.3281555175781],"min":[1.5953121185302734,-45.384098052978516,89.69758605957031],"type":"VEC3"},{"bufferView":1,"componentType":5126,"count":83,"max":[0.99609375,0.9960938096046448],"min":[-19.750518798828125,-2.8798365592956543],"type":"VEC2"},{"bufferView":2,"componentType":5126,"count":83,"max":[0.9998700022697449,0.1888137310743332,0.9998700022697449],"min":[-1,-0.17032688856124878,-0.08887571096420288],"type":"VEC3"},{"bufferView":3,"componentType":5126,"count":83,"max":[0.12403474003076553,1,0.15450464189052582,-1],"min":[-0.21079915761947632,-0.9998700022697449,-0.1307326704263687,-1],"type":"VEC4"},{"bufferView":4,"componentType":5126,"count":463,"max":[13.06417179107666,70.26815795898438,376.9150390625],"min":[-8.024426460266113,-70.64547729492188,-105.6596908569336],"type":"VEC3"},{"bufferView":5,"componentType":5126,"count":463,"max":[42,9.810168266296387],"min":[0,-4.919332981109619],"type":"VEC2"},{"bufferView":6,"componentType":5126,"count":463,"max":[0.9998700022697449,0.9998700022697449,1],"min":[-0.9998700022697449,-0.9997480511665344,-1],"type":"VEC3"},{"bufferView":7,"componentType":5126,"count":463,"max":[0.7182402610778809,0.9993062615394592,1,1],"min":[-0.7293477654457092,-0.9993062615394592,-1,-1],"type":"VEC4"},{"bufferView":8,"componentType":5126,"count":463,"max":[0.8313725590705872,0.6901960968971252,0.3960784375667572,1],"min":[0.29411765933036804,0.21568627655506134,0.16078431904315948,1],"type":"VEC4"},{"bufferView":9,"componentType":5125,"count":300,"type":"SCALAR"},{"bufferView":10,"componentType":5125,"count":1260,"type":"SCALAR"}],"bufferViews":[{"buffer":0,"byteLength":996,"byteOffset":37200,"target":34962},{"buffer":0,"byteLength":664,"byteOffset":39192,"target":34962},{"buffer":0,"byteLength":996,"byteOffset":38196,"target":34962},{"buffer":0,"byteLength":1328,"byteOffset":34672,"target":34962},{"buffer":0,"byteLength":5556,"byteOffset":14816,"target":34962},{"buffer":0,"byteLength":3704,"byteOffset":30968,"target":34962},{"buffer":0,"byteLength":5556,"byteOffset":20372,"target":34962},{"buffer":0,"byteLength":7408,"target":34962},{"buffer":0,"byteLength":7408,"byteOffset":7408,"target":34962},{"buffer":0,"byteLength":1200,"byteOffset":36000,"target":34963},{"buffer":0,"byteLength":5040,"byteOffset":25928,"target":34963}],"buffers":[{"byteLength":39856,"uri":"banner_white.bin"}],"images":[{"name":"team_banner_radiant_ti10_normal_psd_482e1c08.vtex","uri":"team_banner_radiant_ti10_normal_psd_482e1c08.png"},{"name":"team_banner_radiant_ti10_color_psd_5efae7d7.vtex","uri":"team_banner_radiant_ti10_color_psd_5efae7d7.png"},{"name":"props_generic_02_normal_psd_df3b71fd.vtex","uri":"props_generic_02_normal_psd_df3b71fd.png"},{"name":"team_banner_radiant_ti10_vmat_g_tspecular_83163e7b.vtex","uri":"team_banner_radiant_ti10_vmat_g_tspecular_83163e7b.png"},{"name":"props_generic_02_color_psd_4479a520.vtex","uri":"props_generic_02_color_psd_4479a520.png"},{"name":"props_generic_02_refl_psd_e453c9c1.vtex","uri":"props_generic_02_refl_psd_e453c9c1.png"}],"materials":[{"extras":{"baseColorTexture":{"index":1}},"name":"team_banner_radiant_ti10","alphaCutoff":0.699999988079071,"alphaMode":"MASK","emissiveTexture":{"index":3},"normalTexture":{"index":0},"pbrMetallicRoughness":{"baseColorFactor":[0.870588,0.870588,0.870588,1],"baseColorTexture":{"index":1},"metallicFactor":0}},{"extras":{"baseColorTexture":{"index":4}},"name":"props_generic_02","emissiveTexture":{"index":5},"normalTexture":{"index":2},"pbrMetallicRoughness":{"baseColorTexture":{"index":4},"metallicFactor":0}}],"meshes":[{"extras":{},"name":"banner_radiant_ti10.vmdl_c.banner_radiant_ti10","primitives":[{"attributes":{"POSITION":0,"TEXCOORD_0":1,"NORMAL":2,"TANGENT":3},"indices":9,"material":0},{"attributes":{"POSITION":4,"TEXCOORD_0":5,"NORMAL":6,"TANGENT":7,"_TEXCOORD_1":8},"indices":10,"material":1}]}],"nodes":[{"name":"banner_radiant_ti10.vmdl_c.banner_radiant_ti10","matrix":[3.027916E-09,0,0.025399996,0,0.025399996,3.027916E-09,0,0,0,0.025399996,3.027916E-09,0,0,0,0,1],"mesh":0}],"samplers":[{"magFilter":9729,"minFilter":9987}],"scenes":[{"name":"banner_radiant_ti10.vmdl_c","nodes":[0]}],"textures":[{"name":"team_banner_radiant_ti10_normal_psd_482e1c08.vtex","sampler":0,"source":0},{"name":"team_banner_radiant_ti10_color_psd_5efae7d7.vtex","sampler":0,"source":1},{"name":"props_generic_02_normal_psd_df3b71fd.vtex","sampler":0,"source":2},{"name":"team_banner_radiant_ti10_vmat_g_tspecular_83163e7b.vtex","sampler":0,"source":3},{"name":"props_generic_02_color_psd_4479a520.vtex","sampler":0,"source":4},{"name":"props_generic_02_refl_psd_e453c9c1.vtex","sampler":0,"source":5}]}