{"asset":{"copyright":"","generator":"Source 2 Viewer 11.1.0.0 - https://valveresourceformat.github.io","version":"2.0"},"accessors":[{"bufferView":0,"componentType":5126,"count":588,"max":[118.21206665039062,64.08474731445312,73.80036926269531],"min":[-59.904815673828125,-60.738983154296875,0.40434837341308594],"type":"VEC3"},{"bufferView":1,"componentType":5126,"count":588,"max":[0.999481201171875,0.999481201171875],"min":[0.0004882961511611938,0.015442365780472755],"type":"VEC2"},{"bufferView":2,"componentType":5126,"count":588,"max":[0.9963046908378601,0.999462902545929,0.9993062615394592],"min":[-0.9963046908378601,-0.9998700022697449,-0.9934532642364502],"type":"VEC3"},{"bufferView":3,"componentType":5126,"count":588,"max":[0.9834215641021729,1,0.9997313618659973,1],"min":[-0.996022641658783,-0.9997313618659973,-0.9997313618659973,-1],"type":"VEC4"},{"bufferView":4,"componentType":5125,"count":2550,"type":"SCALAR"},{"bufferView":5,"componentType":5125,"count":264,"type":"SCALAR"}],"bufferViews":[{"buffer":0,"byteLength":7056,"byteOffset":19608,"target":34962},{"buffer":0,"byteLength":4704,"byteOffset":33720,"target":34962},{"buffer":0,"byteLength":7056,"byteOffset":26664,"target":34962},{"buffer":0,"byteLength":9408,"byteOffset":10200,"target":34962},{"buffer":0,"byteLength":10200,"target":34963},{"buffer":0,"byteLength":1056,"byteOffset":38424,"target":34963}],"buffers":[{"byteLength":39480,"uri":"frostivus_igloo.bin"}],"images":[{"name":"igloo_color_psd_9eecaa15.vtex","uri":"igloo_color_psd_9eecaa15.png"},{"name":"igloo_color_psd_ddc50d81.vtex","uri":"igloo_color_psd_ddc50d81.png"},{"name":"default_refl_tga_c1b9c83e.vtex","uri":"default_refl_tga_c1b9c83e.png"},{"name":"igloo_normal_psd_7e18e055.vtex","uri":"igloo_normal_psd_7e18e055.png"}],"materials":[{"extras":{"baseColorTexture":{"index":1}},"name":"igloo","emissiveTexture":{"index":2},"normalTexture":{"index":3},"pbrMetallicRoughness":{"baseColorTexture":{"index":1},"metallicFactor":0}},{"extras":{"baseColorTexture":{"index":0}},"name":"igloo_add","alphaMode":"BLEND","pbrMetallicRoughness":{"baseColorTexture":{"index":0},"metallicFactor":0}}],"meshes":[{"extras":{},"name":"frostivus_igloo.vmdl_c.frostivus_igloo","primitives":[{"attributes":{"POSITION":0,"TEXCOORD_0":1,"NORMAL":2,"TANGENT":3},"indices":4,"material":0},{"attributes":{"POSITION":0,"TEXCOORD_0":1,"NORMAL":2,"TANGENT":3},"indices":5,"material":1}]}],"nodes":[{"name":"frostivus_igloo.vmdl_c.frostivus_igloo","matrix":[3.027916E-09,0,0.025399996,0,0.025399996,3.027916E-09,0,0,0,0.025399996,3.027916E-09,0,0,0,0,1],"mesh":0}],"samplers":[{"magFilter":9729,"minFilter":9987}],"scenes":[{"name":"frostivus_igloo.vmdl_c","nodes":[0]}],"textures":[{"name":"igloo_color_psd_9eecaa15.vtex","sampler":0,"source":0},{"name":"igloo_color_psd_ddc50d81.vtex","sampler":0,"source":1},{"name":"default_refl_tga_c1b9c83e.vtex","sampler":0,"source":2},{"name":"igloo_normal_psd_7e18e055.vtex","sampler":0,"source":3}]}