{"asset":{"copyright":"","generator":"Source 2 Viewer 11.1.0.0 - https://valveresourceformat.github.io","version":"2.0"},"accessors":[{"bufferView":0,"componentType":5126,"count":412,"max":[72.6268539428711,41.76812744140625,34.19820022583008],"min":[-37.48872375488281,-42.064666748046875,-0.1383499950170517],"type":"VEC3"},{"bufferView":1,"componentType":5126,"count":412,"max":[0.9928891658782959,0.9727164506912231],"min":[0.0196844395250082,0.0237739197909832],"type":"VEC2"},{"bufferView":2,"componentType":5126,"count":412,"max":[0.997647225856781,0.9889077544212341,1],"min":[-0.9934532642364502,-0.9811468720436096,-0.7147459983825684],"type":"VEC3"},{"bufferView":3,"componentType":5126,"count":412,"max":[0.9945455193519592,1,0.8833192586898804,1],"min":[-0.9846436977386475,-0.998566746711731,-0.9997313618659973,-1],"type":"VEC4"},{"bufferView":4,"componentType":5125,"count":1479,"type":"SCALAR"}],"bufferViews":[{"buffer":0,"byteLength":4944,"byteOffset":12508,"target":34962},{"buffer":0,"byteLength":3296,"byteOffset":22396,"target":34962},{"buffer":0,"byteLength":4944,"byteOffset":17452,"target":34962},{"buffer":0,"byteLength":6592,"target":34962},{"buffer":0,"byteLength":5916,"byteOffset":6592,"target":34963}],"buffers":[{"byteLength":25692,"uri":"goldcoins_01.bin"}],"images":[{"name":"goldcoins_color_psd_834d7c23.vtex","uri":"goldcoins_color_psd_834d7c23.png"}],"materials":[{"extras":{"baseColorTexture":{"index":0}},"name":"goldcoins_color","alphaMode":"MASK","doubleSided":true,"pbrMetallicRoughness":{"baseColorTexture":{"index":0},"metallicFactor":0}}],"meshes":[{"extras":{},"name":"goldcoins_01.vmdl_c.goldcoins_01","primitives":[{"attributes":{"POSITION":0,"TEXCOORD_0":1,"NORMAL":2,"TANGENT":3},"indices":4,"material":0}]}],"nodes":[{"name":"goldcoins_01.vmdl_c.goldcoins_01","matrix":[3.027916E-09,0,0.025399996,0,0.025399996,3.027916E-09,0,0,0,0.025399996,3.027916E-09,0,0,0,0,1],"mesh":0}],"samplers":[{"magFilter":9729,"minFilter":9987}],"scenes":[{"name":"goldcoins_01.vmdl_c","nodes":[0]}],"textures":[{"name":"goldcoins_color_psd_834d7c23.vtex","sampler":0,"source":0}]}