{"asset":{"copyright":"","generator":"Source 2 Viewer 11.1.0.0 - https://valveresourceformat.github.io","version":"2.0"},"accessors":[{"name":"Animation.Input","bufferView":0,"componentType":5126,"count":1,"max":[0],"min":[0],"type":"SCALAR"},{"name":"Animation.Output","bufferView":1,"componentType":5126,"count":1,"max":[0.7071930766105652,0,0.7070204615592957,0],"min":[0.7071930766105652,0,0.7070204615592957,0],"type":"VEC4"},{"name":"Animation.Input","bufferView":2,"componentType":5126,"count":1,"max":[0],"min":[0],"type":"SCALAR"},{"name":"Animation.Output","bufferView":3,"componentType":5126,"count":1,"max":[0,0,0],"min":[0,0,0],"type":"VEC3"},{"name":"Animation.Input","bufferView":4,"componentType":5126,"count":1,"max":[0],"min":[0],"type":"SCALAR"},{"name":"Animation.Output","bufferView":5,"componentType":5126,"count":1,"max":[1,1,1],"min":[1,1,1],"type":"VEC3"},{"name":"Animation.Input","bufferView":6,"componentType":5126,"count":241,"max":[8],"min":[0],"type":"SCALAR"},{"name":"Animation.Output","bufferView":7,"componentType":5126,"count":241,"max":[0.7071930766105652,0.7070204615592957,0.7071930766105652,0],"min":[-0.7071588039398193,-0.7069672346115112,0,-0.7070204615592957],"type":"VEC4"},{"name":"Animation.Input","bufferView":8,"componentType":5126,"count":241,"max":[8],"min":[0],"type":"SCALAR"},{"name":"Animation.Output","bufferView":9,"componentType":5126,"count":241,"max":[58.04861831665039,-2.003042254727916E-06,0],"min":[45.824256896972656,-2.5373863081767922E-06,-1.9073486328125E-05],"type":"VEC3"},{"name":"Animation.Input","bufferView":10,"componentType":5126,"count":1,"max":[0],"min":[0],"type":"SCALAR"},{"name":"Animation.Output","bufferView":11,"componentType":5126,"count":1,"max":[1,1,1],"min":[1,1,1],"type":"VEC3"},{"name":"Animation.Input","bufferView":12,"componentType":5126,"count":241,"max":[8],"min":[0],"type":"SCALAR"},{"name":"Animation.Output","bufferView":13,"componentType":5126,"count":241,"max":[0.7071930766105652,0.7070204615592957,0.7071930766105652,0],"min":[-0.706671416759491,-0.7064594030380249,0,-0.7070204615592957],"type":"VEC4"},{"name":"Animation.Input","bufferView":14,"componentType":5126,"count":3,"max":[8],"min":[0],"type":"SCALAR"},{"name":"Animation.Output","bufferView":15,"componentType":5126,"count":3,"max":[57.27687072753906,-2.5036515580723062E-06,0],"min":[57.276859283447266,-2.503652467567008E-06,-1.1444091796875E-05],"type":"VEC3"},{"name":"Animation.Input","bufferView":16,"componentType":5126,"count":1,"max":[0],"min":[0],"type":"SCALAR"},{"name":"Animation.Output","bufferView":17,"componentType":5126,"count":1,"max":[1,1,1],"min":[1,1,1],"type":"VEC3"},{"bufferView":18,"componentType":5126,"count":612,"max":[38.562416076660156,44.32157516479492,93.32150268554688],"min":[-37.56222152709961,-44.14026641845703,19.089155197143555],"type":"VEC3"},{"bufferView":19,"componentType":5126,"count":612,"max":[0.9620350003242493,0.9914548397064209],"min":[0.00946073792874813,0.0070192571729421616],"type":"VEC2"},{"bufferView":20,"componentType":5126,"count":612,"max":[0.9430255889892578,0.9923720955848694,0.9922779202461243],"min":[-0.9766848683357239,-0.9993062615394592,-0.9918366074562073],"type":"VEC3"},{"bufferView":21,"componentType":5126,"count":612,"max":[0.996022641658783,0.9998700022697449,0.6957951784133911,1],"min":[-0.9960377216339111,-0.9619923830032349,-0.9562957286834717,-1],"type":"VEC4"},{"bufferView":22,"componentType":5123,"count":612,"type":"VEC4"},{"bufferView":23,"componentType":5126,"count":612,"max":[1,0,0,0],"min":[1,0,0,0],"type":"VEC4"},{"bufferView":24,"componentType":5125,"count":1560,"type":"SCALAR"},{"name":"Bind Matrices","bufferView":25,"componentType":5126,"count":3,"max":[0.0017607682384550571,1.379906507281703E-06,0.9999984502792358,0,0.9999969601631165,0.0017605649773031473,-0.0017607674235478044,0,0.9999984502792358,0.9999985098838806,1.7170830233226297E-06,0,1.4997749531175941E-06,0,6.940091168416984E-08,1],"min":[1.379908553644782E-06,-0.001760767656378448,0.9999984502792358,0,0.0017605990869924426,-0.9999969005584717,-0.0017607678892090917,0,-0.0017605646280571818,0.001760598854161799,1.717025725156418E-06,0,-0,-58.04859161376953,-0,1],"type":"MAT4"}],"animations":[{"name":"rune_goldxp_anim","channels":[{"sampler":0,"target":{"node":1,"path":"rotation"}},{"sampler":1,"target":{"node":1,"path":"translation"}},{"sampler":2,"target":{"node":1,"path":"scale"}},{"sampler":3,"target":{"node":2,"path":"rotation"}},{"sampler":4,"target":{"node":2,"path":"translation"}},{"sampler":5,"target":{"node":2,"path":"scale"}},{"sampler":6,"target":{"node":3,"path":"rotation"}},{"sampler":7,"target":{"node":3,"path":"translation"}},{"sampler":8,"target":{"node":3,"path":"scale"}}],"samplers":[{"input":0,"output":1},{"input":2,"output":3},{"input":4,"output":5},{"input":6,"output":7},{"input":8,"output":9},{"input":10,"output":11},{"input":12,"output":13},{"input":14,"output":15},{"input":16,"output":17}]}],"bufferViews":[{"buffer":0,"byteLength":4,"byteOffset":64104},{"buffer":0,"byteLength":16,"byteOffset":64028},{"buffer":0,"byteLength":4,"byteOffset":64108},{"buffer":0,"byteLength":12,"byteOffset":64044},{"buffer":0,"byteLength":4,"byteOffset":64112},{"buffer":0,"byteLength":12,"byteOffset":64056},{"buffer":0,"byteLength":964,"byteOffset":60908},{"buffer":0,"byteLength":3856,"byteOffset":50304},{"buffer":0,"byteLength":964,"byteOffset":61872},{"buffer":0,"byteLength":2892,"byteOffset":58016},{"buffer":0,"byteLength":4,"byteOffset":64116},{"buffer":0,"byteLength":12,"byteOffset":64068},{"buffer":0,"byteLength":964,"byteOffset":62836},{"buffer":0,"byteLength":3856,"byteOffset":54160},{"buffer":0,"byteLength":12,"byteOffset":64080},{"buffer":0,"byteLength":36,"byteOffset":63992},{"buffer":0,"byteLength":4,"byteOffset":64120},{"buffer":0,"byteLength":12,"byteOffset":64092},{"buffer":0,"byteLength":7344,"byteOffset":19584,"target":34962},{"buffer":0,"byteLength":4896,"byteOffset":40512,"target":34962},{"buffer":0,"byteLength":7344,"byteOffset":26928,"target":34962},{"buffer":0,"byteLength":9792,"target":34962},{"buffer":0,"byteLength":4896,"byteOffset":45408,"target":34962},{"buffer":0,"byteLength":9792,"byteOffset":9792,"target":34962},{"buffer":0,"byteLength":6240,"byteOffset":34272,"target":34963},{"buffer":0,"byteLength":192,"byteOffset":63800}],"buffers":[{"byteLength":64124,"uri":"rune_goldxp.bin"}],"images":[{"name":"rune_goldxp_color_psd_79fc5e4d.vtex","uri":"rune_goldxp_color_psd_79fc5e4d.png"},{"name":"rune_goldxp_color_vmat_g_tspecular_67f31493.vtex","uri":"rune_goldxp_color_vmat_g_tspecular_67f31493.png"}],"materials":[{"extras":{"baseColorTexture":{"index":0}},"name":"rune_goldxp_color","emissiveTexture":{"index":1},"pbrMetallicRoughness":{"baseColorTexture":{"index":0},"metallicFactor":0}}],"meshes":[{"extras":{},"name":"rune_goldxp.vmdl_c.rune_goldxp_model","primitives":[{"attributes":{"POSITION":18,"TEXCOORD_0":19,"NORMAL":20,"TANGENT":21,"JOINTS_0":22,"WEIGHTS_0":23},"indices":24,"material":0}]}],"nodes":[{"name":"rune_goldxp.vmdl_c","children":[1],"matrix":[3.027916E-09,0,0.025399996,0,0.025399996,3.027916E-09,0,0,0,0.025399996,3.027916E-09,0,0,0,0,1]},{"name":"joint1","children":[2,3],"rotation":[0.7071062,-5.9598317E-08,0.7071063,0.001244992]},{"name":"joint2","rotation":[-1.5993341E-10,-2.0109245E-10,-0.70710677,0.70710677],"translation":[58.048588,3.4866935E-06,-6.602204E-08]},{"name":"joint3_rings","rotation":[-1.5993341E-10,-2.0109245E-10,-0.70710677,0.70710677],"translation":[57.276848,3.4290722E-06,-6.5148924E-08]},{"name":"rune_goldxp.vmdl_c.rune_goldxp_model","mesh":0,"skin":0}],"samplers":[{"magFilter":9729,"minFilter":9987}],"scenes":[{"name":"rune_goldxp.vmdl_c","nodes":[0,4]}],"skins":[{"inverseBindMatrices":25,"joints":[1,2,3]}],"textures":[{"name":"rune_goldxp_color_psd_79fc5e4d.vtex","sampler":0,"source":0},{"name":"rune_goldxp_color_vmat_g_tspecular_67f31493.vtex","sampler":0,"source":1}]}