{"asset":{"copyright":"","generator":"Source 2 Viewer 11.1.0.0 - https://valveresourceformat.github.io","version":"2.0"},"accessors":[{"bufferView":0,"componentType":5126,"count":361,"max":[113.27899932861328,113.27899932861328,21.458799362182617],"min":[-113.27899932861328,-113.27899932861328,0],"type":"VEC3"},{"bufferView":1,"componentType":5126,"count":361,"max":[1,1],"min":[0,0],"type":"VEC2"},{"bufferView":2,"componentType":5126,"count":361,"max":[0.8898337483406067,0.8898337483406067,1],"min":[-0.8996149301528931,-0.8996149301528931,0.40305694937705994],"type":"VEC3"},{"bufferView":3,"componentType":5126,"count":361,"max":[0.0662427619099617,1,0.8811602592468262,-1],"min":[-0.04422657564282417,0.47281768918037415,-0.8811602592468262,-1],"type":"VEC4"},{"bufferView":4,"componentType":5125,"count":1512,"type":"SCALAR"}],"bufferViews":[{"buffer":0,"byteLength":4332,"byteOffset":11824,"target":34962},{"buffer":0,"byteLength":2888,"byteOffset":20488,"target":34962},{"buffer":0,"byteLength":4332,"byteOffset":16156,"target":34962},{"buffer":0,"byteLength":5776,"byteOffset":6048,"target":34962},{"buffer":0,"byteLength":6048,"target":34963}],"buffers":[{"byteLength":23376,"uri":"rune_point001.bin"}],"images":[{"name":"rune_point001_color_psd_37f86c5f.vtex","uri":"rune_point001_color_psd_37f86c5f.png"},{"name":"rune_point001_normal_psd_496bee0b.vtex","uri":"rune_point001_normal_psd_496bee0b.png"},{"name":"rune_point001_spec_psd_792c028b.vtex","uri":"rune_point001_spec_psd_792c028b.png"}],"materials":[{"extras":{"baseColorTexture":{"index":0}},"name":"rune_point001","emissiveTexture":{"index":2},"normalTexture":{"index":1},"pbrMetallicRoughness":{"baseColorFactor":[1,0.996078,0.980392,1],"baseColorTexture":{"index":0},"metallicFactor":0}}],"meshes":[{"extras":{},"name":"rune_point001.vmdl_c.rune_point001","primitives":[{"attributes":{"POSITION":0,"TEXCOORD_0":1,"NORMAL":2,"TANGENT":3},"indices":4,"material":0}]}],"nodes":[{"name":"rune_point001.vmdl_c.rune_point001","matrix":[3.027916E-09,0,0.025399996,0,0.025399996,3.027916E-09,0,0,0,0.025399996,3.027916E-09,0,0,0,0,1],"mesh":0}],"samplers":[{"magFilter":9729,"minFilter":9987}],"scenes":[{"name":"rune_point001.vmdl_c","nodes":[0]}],"textures":[{"name":"rune_point001_color_psd_37f86c5f.vtex","sampler":0,"source":0},{"name":"rune_point001_normal_psd_496bee0b.vtex","sampler":0,"source":1},{"name":"rune_point001_spec_psd_792c028b.vtex","sampler":0,"source":2}]}