{"asset":{"copyright":"","generator":"Source 2 Viewer 11.1.0.0 - https://valveresourceformat.github.io","version":"2.0"},"accessors":[{"bufferView":0,"componentType":5126,"count":754,"max":[50.890560150146484,61.148983001708984,55.524566650390625],"min":[-67.00850677490234,-58.99565505981445,-14.41805362701416],"type":"VEC3"},{"bufferView":1,"componentType":5126,"count":754,"max":[0.9341715574264526,0.9960936307907104],"min":[0.003875850699841976,0.006378368474543095],"type":"VEC2"},{"bufferView":2,"componentType":5126,"count":754,"max":[0.9998700022697449,1,0.9997313618659973],"min":[-0.9987523555755615,-1,-0.9993062615394592],"type":"VEC3"},{"bufferView":3,"componentType":5126,"count":754,"max":[0.998566746711731,0.9993062615394592,0.9993062615394592,1],"min":[-0.9831354022026062,-0.9998700022697449,-0.9998700022697449,-1],"type":"VEC4"},{"bufferView":4,"componentType":5125,"count":1557,"type":"SCALAR"}],"bufferViews":[{"buffer":0,"byteLength":9048,"byteOffset":12064,"target":34962},{"buffer":0,"byteLength":6032,"byteOffset":36388,"target":34962},{"buffer":0,"byteLength":9048,"byteOffset":21112,"target":34962},{"buffer":0,"byteLength":12064,"target":34962},{"buffer":0,"byteLength":6228,"byteOffset":30160,"target":34963}],"buffers":[{"byteLength":42420,"uri":"camp_fire001.bin"}],"images":[{"name":"campfire001_color_psd_69b3b49b.vtex","uri":"campfire001_color_psd_69b3b49b.png"},{"name":"campfire001_refl_tga_7a351dd0.vtex","uri":"campfire001_refl_tga_7a351dd0.png"}],"materials":[{"extras":{"baseColorTexture":{"index":0}},"name":"campfire001","emissiveTexture":{"index":1},"pbrMetallicRoughness":{"baseColorTexture":{"index":0},"metallicFactor":0}}],"meshes":[{"extras":{},"name":"camp_fire001.vmdl_c.camp_fire001_model","primitives":[{"attributes":{"POSITION":0,"TEXCOORD_0":1,"NORMAL":2,"TANGENT":3},"indices":4,"material":0}]}],"nodes":[{"name":"camp_fire001.vmdl_c.camp_fire001_model","matrix":[3.027916E-09,0,0.025399996,0,0.025399996,3.027916E-09,0,0,0,0.025399996,3.027916E-09,0,0,0,0,1],"mesh":0}],"samplers":[{"magFilter":9729,"minFilter":9987}],"scenes":[{"name":"camp_fire001.vmdl_c","nodes":[0]}],"textures":[{"name":"campfire001_color_psd_69b3b49b.vtex","sampler":0,"source":0},{"name":"campfire001_refl_tga_7a351dd0.vtex","sampler":0,"source":1}]}