{"asset":{"copyright":"","generator":"Source 2 Viewer 11.1.0.0 - https://valveresourceformat.github.io","version":"2.0"},"accessors":[{"bufferView":0,"componentType":5126,"count":1190,"max":[32.444732666015625,112.66204833984375,158.5566864013672],"min":[-32.444732666015625,-112.66204833984375,-0.0566832609474659],"type":"VEC3"},{"bufferView":1,"componentType":5126,"count":1190,"max":[0.7054963707923889,0.8822901248931885],"min":[0.004455702379345894,0.42289498448371887],"type":"VEC2"},{"bufferView":2,"componentType":5126,"count":1190,"max":[0.9993062615394592,1,0.999462902545929],"min":[-0.9977096915245056,-1,-0.9997313618659973],"type":"VEC3"},{"bufferView":3,"componentType":5126,"count":1190,"max":[0.9972413182258606,0.9997480511665344,0.9993062615394592,1],"min":[-0.998073399066925,-0.9889077544212341,-0.9998700022697449,-1],"type":"VEC4"},{"bufferView":4,"componentType":5125,"count":4347,"type":"SCALAR"}],"bufferViews":[{"buffer":0,"byteLength":14280,"byteOffset":36428,"target":34962},{"buffer":0,"byteLength":9520,"byteOffset":64988,"target":34962},{"buffer":0,"byteLength":14280,"byteOffset":50708,"target":34962},{"buffer":0,"byteLength":19040,"target":34962},{"buffer":0,"byteLength":17388,"byteOffset":19040,"target":34963}],"buffers":[{"byteLength":74508,"uri":"camp_fire002.bin"}],"images":[{"name":"creep_camps001_color_psd_a8fcc136.vtex","uri":"creep_camps001_color_psd_a8fcc136.png"},{"name":"creep_camps001_refl_tga_7fc1b099.vtex","uri":"creep_camps001_refl_tga_7fc1b099.png"}],"materials":[{"extras":{"baseColorTexture":{"index":0}},"name":"creep_camps001","emissiveTexture":{"index":1},"pbrMetallicRoughness":{"baseColorTexture":{"index":0},"metallicFactor":0}}],"meshes":[{"extras":{},"name":"camp_fire002.vmdl_c.camp_fire002_model","primitives":[{"attributes":{"POSITION":0,"TEXCOORD_0":1,"NORMAL":2,"TANGENT":3},"indices":4,"material":0}]}],"nodes":[{"name":"camp_fire002.vmdl_c.camp_fire002_model","matrix":[3.027916E-09,0,0.025399996,0,0.025399996,3.027916E-09,0,0,0,0.025399996,3.027916E-09,0,0,0,0,1],"mesh":0}],"samplers":[{"magFilter":9729,"minFilter":9987}],"scenes":[{"name":"camp_fire002.vmdl_c","nodes":[0]}],"textures":[{"name":"creep_camps001_color_psd_a8fcc136.vtex","sampler":0,"source":0},{"name":"creep_camps001_refl_tga_7fc1b099.vtex","sampler":0,"source":1}]}