{"asset":{"copyright":"","generator":"Source 2 Viewer 11.1.0.0 - https://valveresourceformat.github.io","version":"2.0"},"accessors":[{"bufferView":0,"componentType":5126,"count":603,"max":[72.82422637939453,36.2685546875,105.84436798095703],"min":[-72.82421875,-36.2686767578125,-1.0396513938903809],"type":"VEC3"},{"bufferView":1,"componentType":5126,"count":603,"max":[0.7259132862091064,0.5003509521484375],"min":[0.0042420728132128716,0.007568590342998505],"type":"VEC2"},{"bufferView":2,"componentType":5126,"count":603,"max":[0.9997313618659973,0.9889077544212341,1],"min":[-0.9993062615394592,-0.9998700022697449,-1],"type":"VEC3"},{"bufferView":3,"componentType":5126,"count":603,"max":[0.9993062615394592,1,0.9947522878646851,-1],"min":[-0.9998700022697449,-0.9998700022697449,-0.9941523671150208,-1],"type":"VEC4"},{"bufferView":4,"componentType":5125,"count":2385,"type":"SCALAR"}],"bufferViews":[{"buffer":0,"byteLength":7236,"byteOffset":19188,"target":34962},{"buffer":0,"byteLength":4824,"byteOffset":33660,"target":34962},{"buffer":0,"byteLength":7236,"byteOffset":26424,"target":34962},{"buffer":0,"byteLength":9648,"target":34962},{"buffer":0,"byteLength":9540,"byteOffset":9648,"target":34963}],"buffers":[{"byteLength":38484,"uri":"creep_camp001m.bin"}],"images":[{"name":"creep_camps001_color_psd_a8fcc136.vtex","uri":"creep_camps001_color_psd_a8fcc136.png"},{"name":"creep_camps001_refl_tga_7fc1b099.vtex","uri":"creep_camps001_refl_tga_7fc1b099.png"}],"materials":[{"extras":{"baseColorTexture":{"index":0}},"name":"creep_camps001","emissiveTexture":{"index":1},"pbrMetallicRoughness":{"baseColorTexture":{"index":0},"metallicFactor":0}}],"meshes":[{"extras":{},"name":"creep_camp001m.vmdl_c.creep_camp001m_model","primitives":[{"attributes":{"POSITION":0,"TEXCOORD_0":1,"NORMAL":2,"TANGENT":3},"indices":4,"material":0}]}],"nodes":[{"name":"creep_camp001m.vmdl_c.creep_camp001m_model","matrix":[3.027916E-09,0,0.025399996,0,0.025399996,3.027916E-09,0,0,0,0.025399996,3.027916E-09,0,0,0,0,1],"mesh":0}],"samplers":[{"magFilter":9729,"minFilter":9987}],"scenes":[{"name":"creep_camp001m.vmdl_c","nodes":[0]}],"textures":[{"name":"creep_camps001_color_psd_a8fcc136.vtex","sampler":0,"source":0},{"name":"creep_camps001_refl_tga_7fc1b099.vtex","sampler":0,"source":1}]}