{"asset":{"copyright":"","generator":"Source 2 Viewer 11.1.0.0 - https://valveresourceformat.github.io","version":"2.0"},"accessors":[{"bufferView":0,"componentType":5126,"count":1568,"max":[84.76616668701172,101.9971923828125,83.125],"min":[-84.76616668701172,-101.9971923828125,-2.8945670127868652],"type":"VEC3"},{"bufferView":1,"componentType":5126,"count":1568,"max":[0.9969786405563354,0.6473891139030457],"min":[0.0042420728132128716,0.007171849720180035],"type":"VEC2"},{"bufferView":2,"componentType":5126,"count":1568,"max":[1,0.9998700022697449,1],"min":[-1,-1,-0.9763441681861877],"type":"VEC3"},{"bufferView":3,"componentType":5126,"count":1568,"max":[1,1,1,1],"min":[-1,-1,-0.9918366074562073,-1],"type":"VEC4"},{"bufferView":4,"componentType":5125,"count":5256,"type":"SCALAR"}],"bufferViews":[{"buffer":0,"byteLength":18816,"byteOffset":46112,"target":34962},{"buffer":0,"byteLength":12544,"byteOffset":83744,"target":34962},{"buffer":0,"byteLength":18816,"byteOffset":64928,"target":34962},{"buffer":0,"byteLength":25088,"target":34962},{"buffer":0,"byteLength":21024,"byteOffset":25088,"target":34963}],"buffers":[{"byteLength":96288,"uri":"creep_camp001c.bin"}],"images":[{"name":"creep_camps001_color_psd_a8fcc136.vtex","uri":"creep_camps001_color_psd_a8fcc136.png"},{"name":"creep_camps001_refl_tga_7fc1b099.vtex","uri":"creep_camps001_refl_tga_7fc1b099.png"}],"materials":[{"extras":{"baseColorTexture":{"index":0}},"name":"creep_camps001","emissiveTexture":{"index":1},"pbrMetallicRoughness":{"baseColorTexture":{"index":0},"metallicFactor":0}}],"meshes":[{"extras":{},"name":"creep_camp001c.vmdl_c.creep_camp001c_model","primitives":[{"attributes":{"POSITION":0,"TEXCOORD_0":1,"NORMAL":2,"TANGENT":3},"indices":4,"material":0}]}],"nodes":[{"name":"creep_camp001c.vmdl_c.creep_camp001c_model","matrix":[3.027916E-09,0,0.025399996,0,0.025399996,3.027916E-09,0,0,0,0.025399996,3.027916E-09,0,0,0,0,1],"mesh":0}],"samplers":[{"magFilter":9729,"minFilter":9987}],"scenes":[{"name":"creep_camp001c.vmdl_c","nodes":[0]}],"textures":[{"name":"creep_camps001_color_psd_a8fcc136.vtex","sampler":0,"source":0},{"name":"creep_camps001_refl_tga_7fc1b099.vtex","sampler":0,"source":1}]}