{"asset":{"copyright":"","generator":"Source 2 Viewer 11.1.0.0 - https://valveresourceformat.github.io","version":"2.0"},"accessors":[{"bufferView":0,"componentType":5126,"count":812,"max":[79.72210693359375,75.78472900390625,48.93803024291992],"min":[-79.72210693359375,-75.78472900390625,-7.517473220825195],"type":"VEC3"},{"bufferView":1,"componentType":5126,"count":812,"max":[0.9979552626609802,0.6768090128898621],"min":[0.0042420728132128716,0.059175390750169754],"type":"VEC2"},{"bufferView":2,"componentType":5126,"count":812,"max":[0.9963046908378601,0.9974828362464905,1],"min":[-0.9977096915245056,-0.999462902545929,-0.9998700022697449],"type":"VEC3"},{"bufferView":3,"componentType":5126,"count":812,"max":[0.9977096915245056,0.9977096915245056,0.9974828362464905,1],"min":[-0.9963046908378601,-0.9974828362464905,-0.9972413182258606,-1],"type":"VEC4"},{"bufferView":4,"componentType":5125,"count":2925,"type":"SCALAR"}],"bufferViews":[{"buffer":0,"byteLength":9744,"byteOffset":24692,"target":34962},{"buffer":0,"byteLength":6496,"byteOffset":44180,"target":34962},{"buffer":0,"byteLength":9744,"byteOffset":34436,"target":34962},{"buffer":0,"byteLength":12992,"target":34962},{"buffer":0,"byteLength":11700,"byteOffset":12992,"target":34963}],"buffers":[{"byteLength":50676,"uri":"creep_camp001l.bin"}],"images":[{"name":"creep_camps001_color_psd_a8fcc136.vtex","uri":"creep_camps001_color_psd_a8fcc136.png"},{"name":"creep_camps001_refl_tga_7fc1b099.vtex","uri":"creep_camps001_refl_tga_7fc1b099.png"}],"materials":[{"extras":{"baseColorTexture":{"index":0}},"name":"creep_camps001","emissiveTexture":{"index":1},"pbrMetallicRoughness":{"baseColorTexture":{"index":0},"metallicFactor":0}}],"meshes":[{"extras":{},"name":"creep_camp001l.vmdl_c.creep_camp001l_model","primitives":[{"attributes":{"POSITION":0,"TEXCOORD_0":1,"NORMAL":2,"TANGENT":3},"indices":4,"material":0}]}],"nodes":[{"name":"creep_camp001l.vmdl_c.creep_camp001l_model","matrix":[3.027916E-09,0,0.025399996,0,0.025399996,3.027916E-09,0,0,0,0.025399996,3.027916E-09,0,0,0,0,1],"mesh":0}],"samplers":[{"magFilter":9729,"minFilter":9987}],"scenes":[{"name":"creep_camp001l.vmdl_c","nodes":[0]}],"textures":[{"name":"creep_camps001_color_psd_a8fcc136.vtex","sampler":0,"source":0},{"name":"creep_camps001_refl_tga_7fc1b099.vtex","sampler":0,"source":1}]}