{"asset":{"copyright":"","generator":"Source 2 Viewer 11.1.0.0 - https://valveresourceformat.github.io","version":"2.0"},"accessors":[{"name":"Animation.Input","bufferView":0,"componentType":5126,"count":1,"max":[0],"min":[0],"type":"SCALAR"},{"name":"Animation.Output","bufferView":1,"componentType":5126,"count":1,"max":[0.5001602172851562,0.49994659423828125,0.49994659423828125,0.49994659423828125],"min":[0.5001602172851562,0.49994659423828125,0.49994659423828125,0.49994659423828125],"type":"VEC4"},{"name":"Animation.Input","bufferView":2,"componentType":5126,"count":5,"max":[11],"min":[0],"type":"SCALAR"},{"name":"Animation.Output","bufferView":3,"componentType":5126,"count":5,"max":[0,0,267.60699462890625],"min":[0,0,267.6069641113281],"type":"VEC3"},{"name":"Animation.Input","bufferView":4,"componentType":5126,"count":1,"max":[0],"min":[0],"type":"SCALAR"},{"name":"Animation.Output","bufferView":5,"componentType":5126,"count":1,"max":[1,1,1],"min":[1,1,1],"type":"VEC3"},{"name":"Animation.Input","bufferView":6,"componentType":5126,"count":681,"max":[22.66666603088379],"min":[0],"type":"SCALAR"},{"name":"Animation.Output","bufferView":7,"componentType":5126,"count":681,"max":[0.1431131660938263,0.5749558210372925,0.03469933196902275,-0.807659924030304],"min":[0.09529368579387665,-0.5477228760719299,-0.09253154695034027,-0.9916350841522217],"type":"VEC4"},{"name":"Animation.Input","bufferView":8,"componentType":5126,"count":1,"max":[0],"min":[0],"type":"SCALAR"},{"name":"Animation.Output","bufferView":9,"componentType":5126,"count":1,"max":[10.75,0.392822265625,-11.5],"min":[10.75,0.392822265625,-11.5],"type":"VEC3"},{"name":"Animation.Input","bufferView":10,"componentType":5126,"count":1,"max":[0],"min":[0],"type":"SCALAR"},{"name":"Animation.Output","bufferView":11,"componentType":5126,"count":1,"max":[1,1,1],"min":[1,1,1],"type":"VEC3"},{"name":"Animation.Input","bufferView":12,"componentType":5126,"count":621,"max":[22.66666603088379],"min":[0],"type":"SCALAR"},{"name":"Animation.Output","bufferView":13,"componentType":5126,"count":621,"max":[0.04415101557970047,0.03897200897336006,0.0035821448545902967,0.9996196627616882],"min":[-0.02757819928228855,-0.13055408000946045,-0.01113486010581255,-0.9996196627616882],"type":"VEC4"},{"name":"Animation.Input","bufferView":14,"componentType":5126,"count":47,"max":[22.66666603088379],"min":[0],"type":"SCALAR"},{"name":"Animation.Output","bufferView":15,"componentType":5126,"count":47,"max":[2.288818359375E-05,-0.249908447265625,-12.999908447265625],"min":[-3.0517578125E-05,-0.2501220703125,-13.000045776367188],"type":"VEC3"},{"name":"Animation.Input","bufferView":16,"componentType":5126,"count":1,"max":[0],"min":[0],"type":"SCALAR"},{"name":"Animation.Output","bufferView":17,"componentType":5126,"count":1,"max":[1,1,1],"min":[1,1,1],"type":"VEC3"},{"name":"Animation.Input","bufferView":18,"componentType":5126,"count":621,"max":[22.633333206176758],"min":[0],"type":"SCALAR"},{"name":"Animation.Output","bufferView":19,"componentType":5126,"count":621,"max":[0.028096100315451622,0.11385178565979004,0.0023737105075269938,0.9996196031570435],"min":[-0.02757819928228855,-0.08713675290346146,-0.003064244519919157,-0.9996196627616882],"type":"VEC4"},{"name":"Animation.Input","bufferView":20,"componentType":5126,"count":45,"max":[22.66666603088379],"min":[0],"type":"SCALAR"},{"name":"Animation.Output","bufferView":21,"componentType":5126,"count":45,"max":[3.0517578125E-05,-2.4999237060546875,-19.499908447265625],"min":[-3.0517578125E-05,-2.5001068115234375,-19.50006103515625],"type":"VEC3"},{"name":"Animation.Input","bufferView":22,"componentType":5126,"count":1,"max":[0],"min":[0],"type":"SCALAR"},{"name":"Animation.Output","bufferView":23,"componentType":5126,"count":1,"max":[1,1,1],"min":[1,1,1],"type":"VEC3"},{"name":"Animation.Input","bufferView":24,"componentType":5126,"count":681,"max":[22.66666603088379],"min":[0],"type":"SCALAR"},{"name":"Animation.Output","bufferView":25,"componentType":5126,"count":681,"max":[0.02900242619216442,0.2340046912431717,0.0026758189778774977,0.9996195435523987],"min":[-0.027621358633041382,-0.0990053042769432,-0.006473755929619074,-0.9996195435523987],"type":"VEC4"},{"name":"Animation.Input","bufferView":26,"componentType":5126,"count":47,"max":[22.66666603088379],"min":[0],"type":"SCALAR"},{"name":"Animation.Output","bufferView":27,"componentType":5126,"count":47,"max":[1.52587890625E-05,2.00006103515625,-19.499893188476562],"min":[-6.103515625E-05,1.9990234375,-19.500045776367188],"type":"VEC3"},{"name":"Animation.Input","bufferView":28,"componentType":5126,"count":1,"max":[0],"min":[0],"type":"SCALAR"},{"name":"Animation.Output","bufferView":29,"componentType":5126,"count":1,"max":[1,1,1],"min":[1,1,1],"type":"VEC3"},{"name":"Animation.Input","bufferView":30,"componentType":5126,"count":681,"max":[22.66666603088379],"min":[0],"type":"SCALAR"},{"name":"Animation.Output","bufferView":31,"componentType":5126,"count":681,"max":[0.02844136767089367,0.18838629126548767,0.0038842535577714443,0.9996067881584167],"min":[-0.028096100315451622,-0.1471700519323349,-0.005179004743695259,-0.9996193647384644],"type":"VEC4"},{"name":"Animation.Input","bufferView":32,"componentType":5126,"count":47,"max":[22.66666603088379],"min":[0],"type":"SCALAR"},{"name":"Animation.Output","bufferView":33,"componentType":5126,"count":47,"max":[3.0517578125E-05,1.50006103515625,-19.499847412109375],"min":[-4.57763671875E-05,1.4990234375,-19.500045776367188],"type":"VEC3"},{"name":"Animation.Input","bufferView":34,"componentType":5126,"count":1,"max":[0],"min":[0],"type":"SCALAR"},{"name":"Animation.Output","bufferView":35,"componentType":5126,"count":1,"max":[1,1,1],"min":[1,1,1],"type":"VEC3"},{"name":"Animation.Input","bufferView":36,"componentType":5126,"count":681,"max":[22.66666603088379],"min":[0],"type":"SCALAR"},{"name":"Animation.Output","bufferView":37,"componentType":5126,"count":681,"max":[0.029736118391156197,0.29895803332328796,0.006473755929619074,0.9996132850646973],"min":[-0.028872951865196228,-0.2358173429965973,-0.008286407217383385,-0.9996181130409241],"type":"VEC4"},{"name":"Animation.Input","bufferView":38,"componentType":5126,"count":47,"max":[22.66666603088379],"min":[0],"type":"SCALAR"},{"name":"Animation.Output","bufferView":39,"componentType":5126,"count":47,"max":[1.52587890625E-05,-1.75,-19.4998779296875],"min":[-6.103515625E-05,-1.75018310546875,-19.500015258789062],"type":"VEC3"},{"name":"Animation.Input","bufferView":40,"componentType":5126,"count":1,"max":[0],"min":[0],"type":"SCALAR"},{"name":"Animation.Output","bufferView":41,"componentType":5126,"count":1,"max":[1,1,1],"min":[1,1,1],"type":"VEC3"},{"name":"Animation.Input","bufferView":42,"componentType":5126,"count":681,"max":[22.66666603088379],"min":[0],"type":"SCALAR"},{"name":"Animation.Output","bufferView":43,"componentType":5126,"count":681,"max":[0.02947716787457466,0.21596449613571167,0.005740063264966011,0.9996196031570435],"min":[-0.02895926684141159,-0.2095770537853241,-0.0059558553621172905,-0.9996180534362793],"type":"VEC4"},{"name":"Animation.Input","bufferView":44,"componentType":5126,"count":45,"max":[22.66666603088379],"min":[0],"type":"SCALAR"},{"name":"Animation.Output","bufferView":45,"componentType":5126,"count":45,"max":[7.62939453125E-06,-1.7499847412109375,-19.499771118164062],"min":[-8.392333984375E-05,-1.7501678466796875,-19.500015258789062],"type":"VEC3"},{"name":"Animation.Input","bufferView":46,"componentType":5126,"count":1,"max":[0],"min":[0],"type":"SCALAR"},{"name":"Animation.Output","bufferView":47,"componentType":5126,"count":1,"max":[1,1,1],"min":[1,1,1],"type":"VEC3"},{"name":"Animation.Input","bufferView":48,"componentType":5126,"count":9,"max":[11.966666221618652],"min":[0],"type":"SCALAR"},{"name":"Animation.Output","bufferView":49,"componentType":5126,"count":9,"max":[0.02757819928228855,0.01657281443476677,0.0004315837286412716,0.9994821548461914],"min":[-0.02757819928228855,-0.01657281443476677,-0.0004315837286412716,-0.9994821548461914],"type":"VEC4"},{"name":"Animation.Input","bufferView":50,"componentType":5126,"count":47,"max":[22.66666603088379],"min":[0],"type":"SCALAR"},{"name":"Animation.Output","bufferView":51,"componentType":5126,"count":47,"max":[1.52587890625E-05,6.103515625E-05,-19.499755859375],"min":[-0.0001068115234375,-0.000244140625,-19.500045776367188],"type":"VEC3"},{"name":"Animation.Input","bufferView":52,"componentType":5126,"count":1,"max":[0],"min":[0],"type":"SCALAR"},{"name":"Animation.Output","bufferView":53,"componentType":5126,"count":1,"max":[1,1,1],"min":[1,1,1],"type":"VEC3"},{"bufferView":54,"componentType":5126,"count":773,"max":[21.110933303833008,19.64494514465332,345.3927001953125],"min":[-125.9444351196289,-19.645774841308594,-1.6065925359725952],"type":"VEC3"},{"bufferView":55,"componentType":5126,"count":773,"max":[0.9929807186126709,0.8886989951133728],"min":[0.004455702379345894,0.30597856640815735],"type":"VEC2"},{"bufferView":56,"componentType":5126,"count":773,"max":[0.9997480511665344,0.9997313618659973,0.998566746711731],"min":[-0.9993062615394592,-0.998566746711731,-0.9987523555755615],"type":"VEC3"},{"bufferView":57,"componentType":5126,"count":773,"max":[0.9993062615394592,0.9997313618659973,0.9718130826950073,1],"min":[-0.9960377216339111,-0.9972413182258606,-1,-1],"type":"VEC4"},{"bufferView":58,"componentType":5123,"count":773,"type":"VEC4"},{"bufferView":59,"componentType":5126,"count":773,"max":[1,0,0,0],"min":[1,0,0,0],"type":"VEC4"},{"bufferView":60,"componentType":5125,"count":3408,"type":"SCALAR"},{"name":"Bind Matrices","bufferView":61,"componentType":5126,"count":9,"max":[4.827986685995711E-06,-4.768342023453442E-06,0.9999999403953552,0,0.9999999403953552,5.906097612751182E-06,0.2554474472999573,0,-4.768342023453442E-06,0.9999999403953552,0.5928114652633667,0,1.524901270866394,-244.38636779785156,-0.0013034797739237547,1],"min":[-0.2334204614162445,-0.6018252372741699,0.763754665851593,0,0.9655135869979858,-0.05029949173331261,-4.768342023453442E-06,0,-0.11531820893287659,0.7970421314239502,4.827986685995711E-06,0,-8.78799819946289,-267.4999084472656,-60.835933685302734,1],"type":"MAT4"}],"animations":[{"name":"creep_camp001h_idle","channels":[{"sampler":0,"target":{"node":1,"path":"rotation"}},{"sampler":1,"target":{"node":1,"path":"translation"}},{"sampler":2,"target":{"node":1,"path":"scale"}},{"sampler":3,"target":{"node":2,"path":"rotation"}},{"sampler":4,"target":{"node":2,"path":"translation"}},{"sampler":5,"target":{"node":2,"path":"scale"}},{"sampler":6,"target":{"node":3,"path":"rotation"}},{"sampler":7,"target":{"node":3,"path":"translation"}},{"sampler":8,"target":{"node":3,"path":"scale"}},{"sampler":9,"target":{"node":4,"path":"rotation"}},{"sampler":10,"target":{"node":4,"path":"translation"}},{"sampler":11,"target":{"node":4,"path":"scale"}},{"sampler":12,"target":{"node":5,"path":"rotation"}},{"sampler":13,"target":{"node":5,"path":"translation"}},{"sampler":14,"target":{"node":5,"path":"scale"}},{"sampler":15,"target":{"node":6,"path":"rotation"}},{"sampler":16,"target":{"node":6,"path":"translation"}},{"sampler":17,"target":{"node":6,"path":"scale"}},{"sampler":18,"target":{"node":7,"path":"rotation"}},{"sampler":19,"target":{"node":7,"path":"translation"}},{"sampler":20,"target":{"node":7,"path":"scale"}},{"sampler":21,"target":{"node":8,"path":"rotation"}},{"sampler":22,"target":{"node":8,"path":"translation"}},{"sampler":23,"target":{"node":8,"path":"scale"}},{"sampler":24,"target":{"node":9,"path":"rotation"}},{"sampler":25,"target":{"node":9,"path":"translation"}},{"sampler":26,"target":{"node":9,"path":"scale"}}],"samplers":[{"input":0,"output":1},{"input":2,"output":3},{"input":4,"output":5},{"input":6,"output":7},{"input":8,"output":9},{"input":10,"output":11},{"input":12,"output":13},{"input":14,"output":15},{"input":16,"output":17},{"input":18,"output":19},{"input":20,"output":21},{"input":22,"output":23},{"input":24,"output":25},{"input":26,"output":27},{"input":28,"output":29},{"input":30,"output":31},{"input":32,"output":33},{"input":34,"output":35},{"input":36,"output":37},{"input":38,"output":39},{"input":40,"output":41},{"input":42,"output":43},{"input":44,"output":45},{"input":46,"output":47},{"input":48,"output":49},{"input":50,"output":51},{"input":52,"output":53}]}],"bufferViews":[{"buffer":0,"byteLength":4,"byteOffset":168400},{"buffer":0,"byteLength":16,"byteOffset":168264},{"buffer":0,"byteLength":20,"byteOffset":168244},{"buffer":0,"byteLength":60,"byteOffset":168148},{"buffer":0,"byteLength":4,"byteOffset":168404},{"buffer":0,"byteLength":12,"byteOffset":168280},{"buffer":0,"byteLength":2724,"byteOffset":143640},{"buffer":0,"byteLength":10896,"byteOffset":38368},{"buffer":0,"byteLength":4,"byteOffset":168408},{"buffer":0,"byteLength":12,"byteOffset":168292},{"buffer":0,"byteLength":4,"byteOffset":168412},{"buffer":0,"byteLength":12,"byteOffset":168304},{"buffer":0,"byteLength":2484,"byteOffset":157260},{"buffer":0,"byteLength":9936,"byteOffset":92848},{"buffer":0,"byteLength":188,"byteOffset":166704},{"buffer":0,"byteLength":564,"byteOffset":162804},{"buffer":0,"byteLength":4,"byteOffset":168416},{"buffer":0,"byteLength":12,"byteOffset":168316},{"buffer":0,"byteLength":2484,"byteOffset":159744},{"buffer":0,"byteLength":9936,"byteOffset":102784},{"buffer":0,"byteLength":180,"byteOffset":167644},{"buffer":0,"byteLength":540,"byteOffset":165624},{"buffer":0,"byteLength":4,"byteOffset":168420},{"buffer":0,"byteLength":12,"byteOffset":168328},{"buffer":0,"byteLength":2724,"byteOffset":146364},{"buffer":0,"byteLength":10896,"byteOffset":49264},{"buffer":0,"byteLength":188,"byteOffset":166892},{"buffer":0,"byteLength":564,"byteOffset":163368},{"buffer":0,"byteLength":4,"byteOffset":168424},{"buffer":0,"byteLength":12,"byteOffset":168340},{"buffer":0,"byteLength":2724,"byteOffset":149088},{"buffer":0,"byteLength":10896,"byteOffset":60160},{"buffer":0,"byteLength":188,"byteOffset":167080},{"buffer":0,"byteLength":564,"byteOffset":163932},{"buffer":0,"byteLength":4,"byteOffset":168428},{"buffer":0,"byteLength":12,"byteOffset":168352},{"buffer":0,"byteLength":2724,"byteOffset":151812},{"buffer":0,"byteLength":10896,"byteOffset":71056},{"buffer":0,"byteLength":188,"byteOffset":167268},{"buffer":0,"byteLength":564,"byteOffset":164496},{"buffer":0,"byteLength":4,"byteOffset":168432},{"buffer":0,"byteLength":12,"byteOffset":168364},{"buffer":0,"byteLength":2724,"byteOffset":154536},{"buffer":0,"byteLength":10896,"byteOffset":81952},{"buffer":0,"byteLength":180,"byteOffset":167824},{"buffer":0,"byteLength":540,"byteOffset":166164},{"buffer":0,"byteLength":4,"byteOffset":168436},{"buffer":0,"byteLength":12,"byteOffset":168376},{"buffer":0,"byteLength":36,"byteOffset":168208},{"buffer":0,"byteLength":144,"byteOffset":168004},{"buffer":0,"byteLength":188,"byteOffset":167456},{"buffer":0,"byteLength":564,"byteOffset":165060},{"buffer":0,"byteLength":4,"byteOffset":168440},{"buffer":0,"byteLength":12,"byteOffset":168388},{"buffer":0,"byteLength":9276,"byteOffset":112720,"target":34962},{"buffer":0,"byteLength":6184,"byteOffset":131272,"target":34962},{"buffer":0,"byteLength":9276,"byteOffset":121996,"target":34962},{"buffer":0,"byteLength":12368,"byteOffset":13632,"target":34962},{"buffer":0,"byteLength":6184,"byteOffset":137456,"target":34962},{"buffer":0,"byteLength":12368,"byteOffset":26000,"target":34962},{"buffer":0,"byteLength":13632,"target":34963},{"buffer":0,"byteLength":576,"byteOffset":162228}],"buffers":[{"byteLength":168444,"uri":"creep_camp001h.bin"}],"images":[{"name":"creep_camps001_color_psd_a8fcc136.vtex","uri":"creep_camps001_color_psd_a8fcc136.png"},{"name":"creep_camps001_refl_tga_7fc1b099.vtex","uri":"creep_camps001_refl_tga_7fc1b099.png"}],"materials":[{"extras":{"baseColorTexture":{"index":0}},"name":"creep_camps001","emissiveTexture":{"index":1},"pbrMetallicRoughness":{"baseColorTexture":{"index":0},"metallicFactor":0}}],"meshes":[{"extras":{},"name":"creep_camp001h.vmdl_c.creep_camp001h_model","primitives":[{"attributes":{"POSITION":54,"TEXCOORD_0":55,"NORMAL":56,"TANGENT":57,"JOINTS_0":58,"WEIGHTS_0":59},"indices":60,"material":0}]}],"nodes":[{"name":"creep_camp001h.vmdl_c","children":[1],"matrix":[3.027916E-09,0,0.025399996,0,0.025399996,3.027916E-09,0,0,0,0.025399996,3.027916E-09,0,0,0,0,1]},{"name":"Root","children":[2],"rotation":[0.4999988,0.4999988,0.4999988,0.50000364],"translation":[1.1993572E-05,-6.332395E-09,267.49994]},{"name":"Bone001","children":[3],"rotation":[-0.13179354,0.016449586,-0.0021873326,0.9911383],"translation":[10.74999,0.3928833,-11.4999895]},{"name":"Bone002","children":[4],"rotation":[-0.027588528,0.01658806,-0.0004578804,0.9994816],"translation":[-9.536743E-06,-0.25030518,-13.000042]},{"name":"Bone003","children":[5],"rotation":[-0.027588528,0.016588064,-0.00045787965,0.9994816],"translation":[-1.1920929E-05,-2.500351,-19.500015]},{"name":"Bone004","children":[6],"rotation":[-0.027588516,0.016588064,-0.000457877,0.9994816],"translation":[-1.001358E-05,1.9994354,-19.500023]},{"name":"Bone005","children":[7],"rotation":[-0.027588587,0.016588053,-0.00045787904,0.9994816],"translation":[-9.059906E-06,1.4993286,-19.500057]},{"name":"Bone006","children":[8],"rotation":[-0.027588628,0.016588079,-0.00045786615,0.9994816],"translation":[-5.722046E-06,-1.750824,-19.50003]},{"name":"Bone007","children":[9],"rotation":[-0.027588539,0.016588066,-0.00045786644,0.9994816],"translation":[-1.9073486E-06,-1.7509918,-19.500038]},{"name":"Bone008","rotation":[-0.027588652,0.016588083,-0.00045784985,0.9994816],"translation":[-5.722046E-06,-0.0011749268,-19.50003]},{"name":"creep_camp001h.vmdl_c.creep_camp001h_model","mesh":0,"skin":0}],"samplers":[{"magFilter":9729,"minFilter":9987}],"scenes":[{"name":"creep_camp001h.vmdl_c","nodes":[0,10]}],"skins":[{"inverseBindMatrices":61,"joints":[1,2,3,4,5,6,7,8,9]}],"textures":[{"name":"creep_camps001_color_psd_a8fcc136.vtex","sampler":0,"source":0},{"name":"creep_camps001_refl_tga_7fc1b099.vtex","sampler":0,"source":1}]}