{"asset":{"copyright":"","generator":"Source 2 Viewer 11.1.0.0 - https://valveresourceformat.github.io","version":"2.0"},"accessors":[{"bufferView":0,"componentType":5126,"count":568,"max":[59.858280181884766,63.68645477294922,302.872314453125],"min":[-55.33849334716797,-52.75857162475586,-0.3125227391719818],"type":"VEC3"},{"bufferView":1,"componentType":5126,"count":568,"max":[0.9849238395690918,0.9984740614891052],"min":[0.011597033590078354,0.012421033345162868],"type":"VEC2"},{"bufferView":2,"componentType":5126,"count":568,"max":[0.999462902545929,0.9977096915245056,0.9993062615394592],"min":[-0.9834215641021729,-0.998073399066925,-0.8273020386695862],"type":"VEC3"},{"bufferView":3,"componentType":5126,"count":568,"max":[0.9972413182258606,0.999462902545929,0.9648462533950806,1],"min":[-0.9972413182258606,-0.9910342693328857,-0.9993062615394592,-1],"type":"VEC4"},{"bufferView":4,"componentType":5123,"count":568,"type":"VEC4"},{"bufferView":5,"componentType":5126,"count":568,"max":[1,0,0,0],"min":[1,0,0,0],"type":"VEC4"},{"bufferView":6,"componentType":5125,"count":2199,"type":"SCALAR"},{"name":"Bind Matrices","bufferView":7,"componentType":5126,"count":1,"max":[0,-0,1,0,1,0,-0,0,0,1,0,0,-0,0,-0,1],"min":[0,-0,1,0,1,0,-0,0,0,1,0,0,-0,0,-0,1],"type":"MAT4"},{"bufferView":8,"componentType":5126,"count":284,"max":[78.74665069580078,104.27639770507812,84.3330078125],"min":[-102.472412109375,-81.61894989013672,-2.672269105911255],"type":"VEC3"},{"bufferView":9,"componentType":5126,"count":284,"max":[0.8584551811218262,0.9984740614891052],"min":[0.011597033590078354,0.012421033345162868],"type":"VEC2"},{"bufferView":10,"componentType":5126,"count":284,"max":[0.9881115555763245,0.9849671721458435,0.9998700022697449],"min":[-0.9715325832366943,-0.9811468720436096,-0.998073399066925],"type":"VEC3"},{"bufferView":11,"componentType":5126,"count":284,"max":[0.9336800575256348,0.9944270849227905,0.9972413182258606,1],"min":[-0.9960377216339111,-0.9378700852394104,-0.9974828362464905,-1],"type":"VEC4"},{"bufferView":12,"componentType":5123,"count":284,"type":"VEC4"},{"bufferView":13,"componentType":5126,"count":284,"max":[1,0,0,0],"min":[1,0,0,0],"type":"VEC4"},{"bufferView":14,"componentType":5125,"count":945,"type":"SCALAR"},{"name":"Bind Matrices","bufferView":15,"componentType":5126,"count":1,"max":[0,-0,1,0,1,0,-0,0,0,1,0,0,-0,0,-0,1],"min":[0,-0,1,0,1,0,-0,0,0,1,0,0,-0,0,-0,1],"type":"MAT4"},{"bufferView":16,"componentType":5126,"count":569,"max":[100.03157043457031,89.35078430175781,687.4663696289062],"min":[-85.25643920898438,-115.36714935302734,-0.3401510715484619],"type":"VEC3"},{"bufferView":17,"componentType":5126,"count":569,"max":[0.9849238395690918,0.9984740614891052],"min":[0.011597033590078354,0.012421033345162868],"type":"VEC2"},{"bufferView":18,"componentType":5126,"count":569,"max":[0.998566746711731,0.9988528490066528,0.9974828362464905],"min":[-0.9941523671150208,-0.998566746711731,-0.6193636059761047],"type":"VEC3"},{"bufferView":19,"componentType":5126,"count":569,"max":[0.9944270849227905,0.9993062615394592,0.9287580847740173,1],"min":[-0.9944270849227905,-0.9974828362464905,-0.999462902545929,-1],"type":"VEC4"},{"bufferView":20,"componentType":5125,"count":2229,"type":"SCALAR"}],"bufferViews":[{"buffer":0,"byteLength":6816,"byteOffset":58648,"target":34962},{"buffer":0,"byteLength":4544,"byteOffset":76832,"target":34962},{"buffer":0,"byteLength":6816,"byteOffset":65464,"target":34962},{"buffer":0,"byteLength":9088,"byteOffset":9104,"target":34962},{"buffer":0,"byteLength":4544,"byteOffset":81376,"target":34962},{"buffer":0,"byteLength":9088,"byteOffset":18192,"target":34962},{"buffer":0,"byteLength":8796,"byteOffset":36196,"target":34963},{"buffer":0,"byteLength":64,"byteOffset":110148},{"buffer":0,"byteLength":3408,"byteOffset":98788,"target":34962},{"buffer":0,"byteLength":2272,"byteOffset":105604,"target":34962},{"buffer":0,"byteLength":3408,"byteOffset":102196,"target":34962},{"buffer":0,"byteLength":4544,"byteOffset":85920,"target":34962},{"buffer":0,"byteLength":2272,"byteOffset":107876,"target":34962},{"buffer":0,"byteLength":4544,"byteOffset":90464,"target":34962},{"buffer":0,"byteLength":3780,"byteOffset":95008,"target":34963},{"buffer":0,"byteLength":64,"byteOffset":110212},{"buffer":0,"byteLength":6828,"byteOffset":44992,"target":34962},{"buffer":0,"byteLength":4552,"byteOffset":72280,"target":34962},{"buffer":0,"byteLength":6828,"byteOffset":51820,"target":34962},{"buffer":0,"byteLength":9104,"target":34962},{"buffer":0,"byteLength":8916,"byteOffset":27280,"target":34963}],"buffers":[{"byteLength":110276,"uri":"dire_tree004.bin"}],"images":[{"name":"dire_tree007c_color_psd_38752190.vtex","uri":"dire_tree007c_color_psd_38752190.png"},{"name":"dire_tree004_tint_normal_tga_dc4f8de4.vtex","uri":"dire_tree004_tint_normal_tga_dc4f8de4.png"}],"materials":[{"extras":{"baseColorTexture":{"index":0}},"name":"dire_tree007c","alphaCutoff":0.699999988079071,"alphaMode":"MASK","normalTexture":{"index":1},"pbrMetallicRoughness":{"baseColorTexture":{"index":0},"metallicFactor":0}}],"meshes":[{"extras":{},"name":"models/props_tree/dire_tree004.vmdl_c.dire_tree004_model","primitives":[{"attributes":{"POSITION":0,"TEXCOORD_0":1,"NORMAL":2,"TANGENT":3,"JOINTS_0":4,"WEIGHTS_0":5},"indices":6,"material":0}]},{"extras":{},"name":"models/props_tree/dire_tree004.vmdl_c.tree_dire_04_stump_model","primitives":[{"attributes":{"POSITION":8,"TEXCOORD_0":9,"NORMAL":10,"TANGENT":11,"JOINTS_0":12,"WEIGHTS_0":13},"indices":14,"material":0}]},{"extras":{},"name":"models/props_tree/dire_tree004.vmdl_c.dire_tree004_inspector","primitives":[{"attributes":{"POSITION":16,"TEXCOORD_0":17,"NORMAL":18,"TANGENT":19},"indices":20,"material":0}]}],"nodes":[{"name":"models/props_tree/dire_tree004.vmdl_c","children":[1],"matrix":[3.027916E-09,0,0.025399996,0,0.025399996,3.027916E-09,0,0,0,0.025399996,3.027916E-09,0,0,0,0,1]},{"name":"joint1","rotation":[0.5,0.5,0.5,0.5]},{"name":"models/props_tree/dire_tree004.vmdl_c.dire_tree004_model","mesh":0,"skin":0},{"name":"models/props_tree/dire_tree004.vmdl_c.tree_dire_04_stump_model","mesh":1,"skin":1},{"name":"models/props_tree/dire_tree004.vmdl_c.dire_tree004_inspector","matrix":[3.027916E-09,0,0.025399996,0,0.025399996,3.027916E-09,0,0,0,0.025399996,3.027916E-09,0,0,0,0,1],"mesh":2}],"samplers":[{"magFilter":9729,"minFilter":9987}],"scenes":[{"name":"dire_tree004.vmdl_c","nodes":[0,2,3,4]}],"skins":[{"inverseBindMatrices":7,"joints":[1]},{"inverseBindMatrices":15,"joints":[1]}],"textures":[{"name":"dire_tree007c_color_psd_38752190.vtex","sampler":0,"source":0},{"name":"dire_tree004_tint_normal_tga_dc4f8de4.vtex","sampler":0,"source":1}]}