{"asset":{"copyright":"","generator":"Source 2 Viewer 11.1.0.0 - https://valveresourceformat.github.io","version":"2.0"},"accessors":[{"name":"Animation.Input","bufferView":0,"componentType":5126,"count":1,"max":[0],"min":[0],"type":"SCALAR"},{"name":"Animation.Output","bufferView":1,"componentType":5126,"count":1,"max":[0.5001602172851562,0.49994659423828125,0.49994659423828125,0.49994659423828125],"min":[0.5001602172851562,0.49994659423828125,0.49994659423828125,0.49994659423828125],"type":"VEC4"},{"name":"Animation.Input","bufferView":2,"componentType":5126,"count":1,"max":[0],"min":[0],"type":"SCALAR"},{"name":"Animation.Output","bufferView":3,"componentType":5126,"count":1,"max":[0,0,0],"min":[0,0,0],"type":"VEC3"},{"name":"Animation.Input","bufferView":4,"componentType":5126,"count":1,"max":[0],"min":[0],"type":"SCALAR"},{"name":"Animation.Output","bufferView":5,"componentType":5126,"count":1,"max":[1,1,1],"min":[1,1,1],"type":"VEC3"},{"name":"Animation.Input","bufferView":6,"componentType":5126,"count":1,"max":[0],"min":[0],"type":"SCALAR"},{"name":"Animation.Output","bufferView":7,"componentType":5126,"count":1,"max":[0,0,0,-1],"min":[0,0,0,-1],"type":"VEC4"},{"name":"Animation.Input","bufferView":8,"componentType":5126,"count":30,"max":[0.9666666388511658],"min":[0],"type":"SCALAR"},{"name":"Animation.Output","bufferView":9,"componentType":5126,"count":30,"max":[1,0,0],"min":[0,0,0],"type":"VEC3"},{"name":"Animation.Input","bufferView":10,"componentType":5126,"count":1,"max":[0],"min":[0],"type":"SCALAR"},{"name":"Animation.Output","bufferView":11,"componentType":5126,"count":1,"max":[1,1,1],"min":[1,1,1],"type":"VEC3"},{"bufferView":12,"componentType":5126,"count":1022,"max":[54.924076080322266,88.0739517211914,259.891845703125],"min":[-111.75627136230469,-109.26255798339844,-32.17822265625],"type":"VEC3"},{"bufferView":13,"componentType":5126,"count":1022,"max":[0.9971618056297302,1],"min":[0,0.0021057771518826485],"type":"VEC2"},{"bufferView":14,"componentType":5126,"count":1022,"max":[0.996022641658783,0.9860711693763733,0.9974828362464905],"min":[-0.993043065071106,-0.9988528490066528,-0.998073399066925],"type":"VEC3"},{"bufferView":15,"componentType":5126,"count":1022,"max":[0.998566746711731,0.998073399066925,1,1],"min":[-0.9993062615394592,-0.996022641658783,-0.9998700022697449,-1],"type":"VEC4"},{"bufferView":16,"componentType":5123,"count":1022,"type":"VEC4"},{"bufferView":17,"componentType":5126,"count":1022,"max":[1,0,0,0],"min":[1,0,0,0],"type":"VEC4"},{"bufferView":18,"componentType":5125,"count":3684,"type":"SCALAR"},{"name":"tree-2","bufferView":19,"componentType":5126,"count":1022,"max":[135.1626434326172,265.0579833984375,224.07228088378906],"min":[-183.9713897705078,-130.20394897460938,-8.19776725769043],"type":"VEC3"},{"name":"Bind Matrices","bufferView":20,"componentType":5126,"count":2,"max":[0,-0,1,0,1,0,-0,0,0,1,0,0,-0,0,-0,1],"min":[0,-0,1,0,1,0,-0,0,0,1,0,0,-0,0,-0,1],"type":"MAT4"}],"animations":[{"name":"growA","channels":[{"sampler":0,"target":{"node":1,"path":"rotation"}},{"sampler":1,"target":{"node":1,"path":"translation"}},{"sampler":2,"target":{"node":1,"path":"scale"}},{"sampler":3,"target":{"node":2,"path":"rotation"}},{"sampler":4,"target":{"node":2,"path":"translation"}},{"sampler":5,"target":{"node":2,"path":"scale"}}],"samplers":[{"input":0,"output":1},{"input":2,"output":3},{"input":4,"output":5},{"input":6,"output":7},{"input":8,"output":9},{"input":10,"output":11}]}],"bufferViews":[{"buffer":0,"byteLength":4,"byteOffset":101260},{"buffer":0,"byteLength":16,"byteOffset":101192},{"buffer":0,"byteLength":4,"byteOffset":101264},{"buffer":0,"byteLength":12,"byteOffset":101224},{"buffer":0,"byteLength":4,"byteOffset":101268},{"buffer":0,"byteLength":12,"byteOffset":101236},{"buffer":0,"byteLength":4,"byteOffset":101272},{"buffer":0,"byteLength":16,"byteOffset":101208},{"buffer":0,"byteLength":120,"byteOffset":101072},{"buffer":0,"byteLength":360,"byteOffset":100584},{"buffer":0,"byteLength":4,"byteOffset":101276},{"buffer":0,"byteLength":12,"byteOffset":101248},{"buffer":0,"byteLength":12264,"byteOffset":47440,"target":34962},{"buffer":0,"byteLength":8176,"byteOffset":84232,"target":34962},{"buffer":0,"byteLength":12264,"byteOffset":59704,"target":34962},{"buffer":0,"byteLength":16352,"target":34962},{"buffer":0,"byteLength":8176,"byteOffset":92408,"target":34962},{"buffer":0,"byteLength":16352,"byteOffset":16352,"target":34962},{"buffer":0,"byteLength":14736,"byteOffset":32704,"target":34963},{"buffer":0,"byteLength":12264,"byteOffset":71968,"target":34962},{"buffer":0,"byteLength":128,"byteOffset":100944}],"buffers":[{"byteLength":101280,"uri":"dire_tree002_grow.bin"}],"images":[{"name":"dire_tree002_color_psd_9b9cf96c.vtex","uri":"dire_tree002_color_psd_9b9cf96c.png"},{"name":"dire_tree002_refl_tga_c93e21c7.vtex","uri":"dire_tree002_refl_tga_c93e21c7.png"}],"materials":[{"extras":{"baseColorTexture":{"index":0}},"name":"dire_tree002","emissiveTexture":{"index":1},"pbrMetallicRoughness":{"baseColorTexture":{"index":0},"metallicFactor":0}}],"meshes":[{"extras":{},"name":"models/props_tree/dire_tree002_grow.vmdl_c.dire_tree002_grow_model","primitives":[{"attributes":{"POSITION":12,"TEXCOORD_0":13,"NORMAL":14,"TANGENT":15,"JOINTS_0":16,"WEIGHTS_0":17},"indices":18,"material":0,"targets":[{"POSITION":19}]}]}],"nodes":[{"name":"models/props_tree/dire_tree002_grow.vmdl_c","children":[1],"matrix":[3.027916E-09,0,0.025399996,0,0.025399996,3.027916E-09,0,0,0,0.025399996,3.027916E-09,0,0,0,0,1]},{"name":"dire_tree002_grow_anim","children":[2],"rotation":[0.5,0.5,0.5,0.5]},{"name":"dire_tree002_grow_joint"},{"name":"models/props_tree/dire_tree002_grow.vmdl_c.dire_tree002_grow_model","mesh":0,"skin":0}],"samplers":[{"magFilter":9729,"minFilter":9987}],"scenes":[{"name":"dire_tree002_grow.vmdl_c","nodes":[0,3]}],"skins":[{"inverseBindMatrices":20,"joints":[1,2]}],"textures":[{"name":"dire_tree002_color_psd_9b9cf96c.vtex","sampler":0,"source":0},{"name":"dire_tree002_refl_tga_c93e21c7.vtex","sampler":0,"source":1}]}