{"asset":{"copyright":"","generator":"Source 2 Viewer 11.1.0.0 - https://valveresourceformat.github.io","version":"2.0"},"accessors":[{"bufferView":0,"componentType":5126,"count":1644,"max":[50.01983642578125,116.74598693847656,370.37603759765625],"min":[-107.00618743896484,-119.13436889648438,-0.3669440448284149],"type":"VEC3"},{"bufferView":1,"componentType":5126,"count":1644,"max":[0.9896542429924011,0.9984740614891052],"min":[0.0014954069629311562,0.009949034079909325],"type":"VEC2"},{"bufferView":2,"componentType":5126,"count":1644,"max":[0.998566746711731,0.9987523555755615,0.9998700022697449],"min":[-0.9997313618659973,-0.9993503093719482,-1],"type":"VEC3"},{"bufferView":3,"componentType":5126,"count":1644,"max":[1,0.999462902545929,0.9998700022697449,1],"min":[-0.998073399066925,-0.9997313618659973,-1,-1],"type":"VEC4"},{"bufferView":4,"componentType":5125,"count":3204,"type":"SCALAR"}],"bufferViews":[{"buffer":0,"byteLength":19728,"byteOffset":26304,"target":34962},{"buffer":0,"byteLength":13152,"byteOffset":65760,"target":34962},{"buffer":0,"byteLength":19728,"byteOffset":46032,"target":34962},{"buffer":0,"byteLength":26304,"target":34962},{"buffer":0,"byteLength":12816,"byteOffset":78912,"target":34963}],"buffers":[{"byteLength":91728,"uri":"dire_tree001.bin"}],"images":[{"name":"dire_tree001_color_psd_18ce191f.vtex","uri":"dire_tree001_color_psd_18ce191f.png"}],"materials":[{"extras":{"baseColorTexture":{"index":0}},"name":"dire_tree001","pbrMetallicRoughness":{"baseColorTexture":{"index":0},"metallicFactor":0}}],"meshes":[{"extras":{},"name":"models/props_tree/dire_tree001.vmdl_c.dire_tree001_model","primitives":[{"attributes":{"POSITION":0,"TEXCOORD_0":1,"NORMAL":2,"TANGENT":3},"indices":4,"material":0}]}],"nodes":[{"name":"models/props_tree/dire_tree001.vmdl_c.dire_tree001_model","matrix":[3.027916E-09,0,0.025399996,0,0.025399996,3.027916E-09,0,0,0,0.025399996,3.027916E-09,0,0,0,0,1],"mesh":0}],"samplers":[{"magFilter":9729,"minFilter":9987}],"scenes":[{"name":"dire_tree001.vmdl_c","nodes":[0]}],"textures":[{"name":"dire_tree001_color_psd_18ce191f.vtex","sampler":0,"source":0}]}