{"asset":{"copyright":"","generator":"Source 2 Viewer 11.1.0.0 - https://valveresourceformat.github.io","version":"2.0"},"accessors":[{"bufferView":0,"componentType":5126,"count":560,"max":[54.40043258666992,68.74960327148438,261.0818176269531],"min":[-45.42464828491211,-86.57897186279297,-8.776554107666016],"type":"VEC3"},{"bufferView":1,"componentType":5126,"count":560,"max":[0.9849238395690918,0.9984740614891052],"min":[0.011597033590078354,0.012421033345162868],"type":"VEC2"},{"bufferView":2,"componentType":5126,"count":560,"max":[0.9998700022697449,0.9941523671150208,0.9287580847740173],"min":[-0.993043065071106,-0.993043065071106,-0.8833192586898804],"type":"VEC3"},{"bufferView":3,"componentType":5126,"count":560,"max":[0.9849671721458435,0.998073399066925,0.9908706545829773,1],"min":[-0.9963046908378601,-0.9977096915245056,-0.9987523555755615,-1],"type":"VEC4"},{"bufferView":4,"componentType":5125,"count":2193,"type":"SCALAR"}],"bufferViews":[{"buffer":0,"byteLength":6720,"byteOffset":17732,"target":34962},{"buffer":0,"byteLength":4480,"byteOffset":31172,"target":34962},{"buffer":0,"byteLength":6720,"byteOffset":24452,"target":34962},{"buffer":0,"byteLength":8960,"target":34962},{"buffer":0,"byteLength":8772,"byteOffset":8960,"target":34963}],"buffers":[{"byteLength":35652,"uri":"dire_tree004b_sfm.bin"}],"images":[{"name":"dire_tree007c_color_psd_38752190.vtex","uri":"dire_tree007c_color_psd_38752190.png"},{"name":"dire_tree004_tint_normal_tga_dc4f8de4.vtex","uri":"dire_tree004_tint_normal_tga_dc4f8de4.png"}],"materials":[{"extras":{"baseColorTexture":{"index":0}},"name":"dire_tree007c","alphaCutoff":0.699999988079071,"alphaMode":"MASK","normalTexture":{"index":1},"pbrMetallicRoughness":{"baseColorTexture":{"index":0},"metallicFactor":0}}],"meshes":[{"extras":{},"name":"models/props_tree/dire_tree004b_sfm.vmdl_c.dire_tree004b_sfm_model","primitives":[{"attributes":{"POSITION":0,"TEXCOORD_0":1,"NORMAL":2,"TANGENT":3},"indices":4,"material":0}]}],"nodes":[{"name":"models/props_tree/dire_tree004b_sfm.vmdl_c.dire_tree004b_sfm_model","matrix":[3.027916E-09,0,0.025399996,0,0.025399996,3.027916E-09,0,0,0,0.025399996,3.027916E-09,0,0,0,0,1],"mesh":0}],"samplers":[{"magFilter":9729,"minFilter":9987}],"scenes":[{"name":"dire_tree004b_sfm.vmdl_c","nodes":[0]}],"textures":[{"name":"dire_tree007c_color_psd_38752190.vtex","sampler":0,"source":0},{"name":"dire_tree004_tint_normal_tga_dc4f8de4.vtex","sampler":0,"source":1}]}