{"asset":{"copyright":"","generator":"Source 2 Viewer 11.1.0.0 - https://valveresourceformat.github.io","version":"2.0"},"accessors":[{"bufferView":0,"componentType":5126,"count":1010,"max":[147.0133819580078,161.74559020996094,392.5691833496094],"min":[-156.57566833496094,-104.48770141601562,-15.008490562438965],"type":"VEC3"},{"bufferView":1,"componentType":5126,"count":1010,"max":[0.9971618056297302,0.9984740614891052],"min":[0.0014954069629311562,0.0021057771518826485],"type":"VEC2"},{"bufferView":2,"componentType":5126,"count":1010,"max":[0.998073399066925,0.9944270849227905,0.9998700022697449],"min":[-0.9969363212585449,-0.9977096915245056,-0.998566746711731],"type":"VEC3"},{"bufferView":3,"componentType":5126,"count":1010,"max":[0.9997313618659973,0.9969363212585449,0.998566746711731,1],"min":[-0.9969363212585449,-0.9998700022697449,-0.9974828362464905,-1],"type":"VEC4"},{"bufferView":4,"componentType":5123,"count":1010,"type":"VEC4"},{"bufferView":5,"componentType":5126,"count":1010,"max":[1,0,0,0],"min":[1,0,0,0],"type":"VEC4"},{"bufferView":6,"componentType":5125,"count":2685,"type":"SCALAR"},{"name":"Bind Matrices","bufferView":7,"componentType":5126,"count":1,"max":[0,-0,1,0,1,0,-0,0,0,1,0,0,-0,0,-0,1],"min":[0,-0,1,0,1,0,-0,0,0,1,0,0,-0,0,-0,1],"type":"MAT4"}],"bufferViews":[{"buffer":0,"byteLength":12120,"byteOffset":32320,"target":34962},{"buffer":0,"byteLength":8080,"byteOffset":67300,"target":34962},{"buffer":0,"byteLength":12120,"byteOffset":44440,"target":34962},{"buffer":0,"byteLength":16160,"target":34962},{"buffer":0,"byteLength":8080,"byteOffset":75380,"target":34962},{"buffer":0,"byteLength":16160,"byteOffset":16160,"target":34962},{"buffer":0,"byteLength":10740,"byteOffset":56560,"target":34963},{"buffer":0,"byteLength":64,"byteOffset":83460}],"buffers":[{"byteLength":83524,"uri":"dire_tree002.bin"}],"images":[{"name":"dire_tree002_color_psd_9b9cf96c.vtex","uri":"dire_tree002_color_psd_9b9cf96c.png"},{"name":"dire_tree002_refl_tga_c93e21c7.vtex","uri":"dire_tree002_refl_tga_c93e21c7.png"}],"materials":[{"extras":{"baseColorTexture":{"index":0}},"name":"dire_tree002","emissiveTexture":{"index":1},"pbrMetallicRoughness":{"baseColorTexture":{"index":0},"metallicFactor":0}}],"meshes":[{"extras":{},"name":"models/props_tree/dire_tree002.vmdl_c.dire_tree002_model","primitives":[{"attributes":{"POSITION":0,"TEXCOORD_0":1,"NORMAL":2,"TANGENT":3,"JOINTS_0":4,"WEIGHTS_0":5},"indices":6,"material":0}]}],"nodes":[{"name":"models/props_tree/dire_tree002.vmdl_c","children":[1],"matrix":[3.027916E-09,0,0.025399996,0,0.025399996,3.027916E-09,0,0,0,0.025399996,3.027916E-09,0,0,0,0,1]},{"name":"joint1","rotation":[0.5,0.5,0.5,0.5]},{"name":"models/props_tree/dire_tree002.vmdl_c.dire_tree002_model","mesh":0,"skin":0}],"samplers":[{"magFilter":9729,"minFilter":9987}],"scenes":[{"name":"dire_tree002.vmdl_c","nodes":[0,2]}],"skins":[{"inverseBindMatrices":7,"joints":[1]}],"textures":[{"name":"dire_tree002_color_psd_9b9cf96c.vtex","sampler":0,"source":0},{"name":"dire_tree002_refl_tga_c93e21c7.vtex","sampler":0,"source":1}]}