{"asset":{"copyright":"","generator":"Source 2 Viewer 11.1.0.0 - https://valveresourceformat.github.io","version":"2.0"},"accessors":[{"bufferView":0,"componentType":5126,"count":15223,"max":[65.09580993652344,113.99243927001953,471.63702392578125],"min":[-24.38365364074707,-126.37220764160156,-0.3703327178955078],"type":"VEC3"},{"bufferView":1,"componentType":5126,"count":15223,"max":[0.9984740614891052,0.999908447265625],"min":[6.103701889514923E-05,6.103701889514923E-05],"type":"VEC2"},{"bufferView":2,"componentType":5126,"count":15223,"max":[0.9999995231628418,0.9999990463256836,0.9999951720237732],"min":[-0.9999995231628418,-0.9999834895133972,-0.9998370409011841],"type":"VEC3"},{"bufferView":3,"componentType":5126,"count":15223,"max":[0.9999955892562866,0.9999354481697083,0.9999724626541138,1],"min":[-0.9999988079071045,-0.999920129776001,-0.9999982118606567,-1],"type":"VEC4"},{"bufferView":4,"componentType":5125,"count":45456,"type":"SCALAR"},{"bufferView":5,"componentType":5125,"count":23844,"type":"SCALAR"}],"bufferViews":[{"buffer":0,"byteLength":182676,"byteOffset":243568,"target":34962},{"buffer":0,"byteLength":121784,"byteOffset":790744,"target":34962},{"buffer":0,"byteLength":182676,"byteOffset":426244,"target":34962},{"buffer":0,"byteLength":243568,"target":34962},{"buffer":0,"byteLength":181824,"byteOffset":608920,"target":34963},{"buffer":0,"byteLength":95376,"byteOffset":912528,"target":34963}],"buffers":[{"byteLength":1007904,"uri":"roshans_banner_lookdev.bin"}],"images":[{"name":"roshans_banner_rope_color_psd_3ad3c4da.vtex","uri":"roshans_banner_rope_color_psd_3ad3c4da.png"},{"name":"roshans_banner_rope_normal_psd_f666d5c.vtex","uri":"roshans_banner_rope_normal_psd_f666d5c.png"},{"name":"roshans_banner_color_psd_2a0bd427.vtex","uri":"roshans_banner_color_psd_2a0bd427.png"},{"name":"roshans_banner_rope_vmat_g_tmasks1_3fd6c990_orm_1783094208.png","uri":"roshans_banner_rope_vmat_g_tmasks1_3fd6c990_orm_1783094208.png"},{"name":"roshans_banner_normal_psd_de977b06.vtex","uri":"roshans_banner_normal_psd_de977b06.png"},{"name":"roshans_banner_diffusemask_psd_20ac140d_orm_3799342161.png","uri":"roshans_banner_diffusemask_psd_20ac140d_orm_3799342161.png"}],"materials":[{"extras":{"baseColorTexture":{"index":2}},"name":"roshans_banner","emissiveTexture":{"index":5},"normalTexture":{"index":4},"pbrMetallicRoughness":{"baseColorTexture":{"index":2},"metallicRoughnessTexture":{"index":5}}},{"extras":{"baseColorTexture":{"index":0}},"name":"roshans_banner_rope","emissiveTexture":{"index":3},"normalTexture":{"index":1},"pbrMetallicRoughness":{"baseColorTexture":{"index":0},"metallicRoughnessTexture":{"index":3}}}],"meshes":[{"extras":{},"name":"roshans_banner_lookdev.vmdl_c.unnamed_1","primitives":[{"attributes":{"POSITION":0,"TEXCOORD_0":1,"NORMAL":2,"TANGENT":3},"indices":4,"material":0},{"attributes":{"POSITION":0,"TEXCOORD_0":1,"NORMAL":2,"TANGENT":3},"indices":5,"material":1}]}],"nodes":[{"name":"roshans_banner_lookdev.vmdl_c.unnamed_1","matrix":[3.027916E-09,0,0.025399996,0,0.025399996,3.027916E-09,0,0,0,0.025399996,3.027916E-09,0,0,0,0,1],"mesh":0}],"samplers":[{"magFilter":9729,"minFilter":9987}],"scenes":[{"name":"roshans_banner_lookdev.vmdl_c","nodes":[0]}],"textures":[{"name":"roshans_banner_rope_color_psd_3ad3c4da.vtex","sampler":0,"source":0},{"name":"roshans_banner_rope_normal_psd_f666d5c.vtex","sampler":0,"source":1},{"name":"roshans_banner_color_psd_2a0bd427.vtex","sampler":0,"source":2},{"name":"roshans_banner_rope_vmat_g_tmasks1_3fd6c990_orm_1783094208.png","sampler":0,"source":3},{"name":"roshans_banner_normal_psd_de977b06.vtex","sampler":0,"source":4},{"name":"roshans_banner_diffusemask_psd_20ac140d_orm_3799342161.png","sampler":0,"source":5}]}