{"asset":{"copyright":"","generator":"Source 2 Viewer 11.1.0.0 - https://valveresourceformat.github.io","version":"2.0"},"accessors":[{"name":"Animation.Input","bufferView":0,"componentType":5126,"count":30,"max":[0.9666666388511658],"min":[0],"type":"SCALAR"},{"name":"Animation.Output","bufferView":1,"componentType":5126,"count":30,"max":[0.6002554893493652,0.501924455165863,0.5030108094215393,0.5838464498519897],"min":[0.49904024600982666,0.4144066870212555,0.3564881682395935,0.49977394938468933],"type":"VEC4"},{"name":"Animation.Input","bufferView":2,"componentType":5126,"count":30,"max":[0.9666666388511658],"min":[0],"type":"SCALAR"},{"name":"Animation.Output","bufferView":3,"componentType":5126,"count":30,"max":[4.829920768737793,0.10098513960838318,0.0008045745780691504],"min":[-0.24850623309612274,-0.15468257665634155,-0.049489762634038925],"type":"VEC3"},{"name":"Animation.Input","bufferView":4,"componentType":5126,"count":1,"max":[0],"min":[0],"type":"SCALAR"},{"name":"Animation.Output","bufferView":5,"componentType":5126,"count":1,"max":[1,1,1],"min":[1,1,1],"type":"VEC3"},{"name":"Animation.Input","bufferView":6,"componentType":5126,"count":1,"max":[0],"min":[0],"type":"SCALAR"},{"name":"Animation.Output","bufferView":7,"componentType":5126,"count":1,"max":[-0.7071930766105652,-0.7070204615592957,0,0],"min":[-0.7071930766105652,-0.7070204615592957,0,0],"type":"VEC4"},{"name":"Animation.Input","bufferView":8,"componentType":5126,"count":1,"max":[0],"min":[0],"type":"SCALAR"},{"name":"Animation.Output","bufferView":9,"componentType":5126,"count":1,"max":[0,0,0],"min":[0,0,0],"type":"VEC3"},{"name":"Animation.Input","bufferView":10,"componentType":5126,"count":1,"max":[0],"min":[0],"type":"SCALAR"},{"name":"Animation.Output","bufferView":11,"componentType":5126,"count":1,"max":[1.0000001192092896,1.0000001192092896,1.0000001192092896],"min":[1.0000001192092896,1.0000001192092896,1.0000001192092896],"type":"VEC3"},{"name":"Animation.Input","bufferView":12,"componentType":5126,"count":1,"max":[0],"min":[0],"type":"SCALAR"},{"name":"Animation.Output","bufferView":13,"componentType":5126,"count":1,"max":[0,0,0,-1],"min":[0,0,0,-1],"type":"VEC4"},{"name":"Animation.Input","bufferView":14,"componentType":5126,"count":30,"max":[0.9666666388511658],"min":[0],"type":"SCALAR"},{"name":"Animation.Output","bufferView":15,"componentType":5126,"count":30,"max":[1,1,9.5367431640625E-07],"min":[-2.384185791015625E-07,-3.5762786865234375E-07,-1.9073486328125E-06],"type":"VEC3"},{"name":"Animation.Input","bufferView":16,"componentType":5126,"count":1,"max":[0],"min":[0],"type":"SCALAR"},{"name":"Animation.Output","bufferView":17,"componentType":5126,"count":1,"max":[1,1,1],"min":[1,1,1],"type":"VEC3"},{"name":"Animation.Input","bufferView":18,"componentType":5126,"count":1,"max":[0],"min":[0],"type":"SCALAR"},{"name":"Animation.Output","bufferView":19,"componentType":5126,"count":1,"max":[0.5001602172851562,0.49994659423828125,0.49994659423828125,0.49994659423828125],"min":[0.5001602172851562,0.49994659423828125,0.49994659423828125,0.49994659423828125],"type":"VEC4"},{"name":"Animation.Input","bufferView":20,"componentType":5126,"count":1,"max":[0],"min":[0],"type":"SCALAR"},{"name":"Animation.Output","bufferView":21,"componentType":5126,"count":1,"max":[0,0,0],"min":[0,0,0],"type":"VEC3"},{"name":"Animation.Input","bufferView":22,"componentType":5126,"count":1,"max":[0],"min":[0],"type":"SCALAR"},{"name":"Animation.Output","bufferView":23,"componentType":5126,"count":1,"max":[1,1,1],"min":[1,1,1],"type":"VEC3"},{"name":"Animation.Input","bufferView":24,"componentType":5126,"count":1,"max":[0],"min":[0],"type":"SCALAR"},{"name":"Animation.Output","bufferView":25,"componentType":5126,"count":1,"max":[-0.7071930766105652,-0.7070204615592957,0,0],"min":[-0.7071930766105652,-0.7070204615592957,0,0],"type":"VEC4"},{"name":"Animation.Input","bufferView":26,"componentType":5126,"count":1,"max":[0],"min":[0],"type":"SCALAR"},{"name":"Animation.Output","bufferView":27,"componentType":5126,"count":1,"max":[0,0,0],"min":[0,0,0],"type":"VEC3"},{"name":"Animation.Input","bufferView":28,"componentType":5126,"count":1,"max":[0],"min":[0],"type":"SCALAR"},{"name":"Animation.Output","bufferView":29,"componentType":5126,"count":1,"max":[1.0000001192092896,1.0000001192092896,1.0000001192092896],"min":[1.0000001192092896,1.0000001192092896,1.0000001192092896],"type":"VEC3"},{"name":"Animation.Input","bufferView":30,"componentType":5126,"count":1,"max":[0],"min":[0],"type":"SCALAR"},{"name":"Animation.Output","bufferView":31,"componentType":5126,"count":1,"max":[0,0,0,-1],"min":[0,0,0,-1],"type":"VEC4"},{"name":"Animation.Input","bufferView":32,"componentType":5126,"count":1,"max":[0],"min":[0],"type":"SCALAR"},{"name":"Animation.Output","bufferView":33,"componentType":5126,"count":1,"max":[0,0,0],"min":[0,0,0],"type":"VEC3"},{"name":"Animation.Input","bufferView":34,"componentType":5126,"count":1,"max":[0],"min":[0],"type":"SCALAR"},{"name":"Animation.Output","bufferView":35,"componentType":5126,"count":1,"max":[1,1,1],"min":[1,1,1],"type":"VEC3"},{"bufferView":36,"componentType":5126,"count":828,"max":[103.000732421875,99.86029052734375,290.27679443359375],"min":[-120.56005096435547,-116.65524291992188,-0.6284084916114807],"type":"VEC3"},{"bufferView":37,"componentType":5126,"count":828,"max":[1.03515625,0.99853515625],"min":[-0.0102386474609375,0.0004496574401855469],"type":"VEC2"},{"bufferView":38,"componentType":5126,"count":828,"max":[0.9945054650306702,0.996022641658783,0.9998700022697449],"min":[-0.9993062615394592,-0.9944270849227905,-0.8908552527427673],"type":"VEC3"},{"bufferView":39,"componentType":5126,"count":828,"max":[0.9997313618659973,0.9988528490066528,0.9895864725112915,1],"min":[-0.9998700022697449,-0.996022641658783,-0.9685061573982239,-1],"type":"VEC4"},{"bufferView":40,"componentType":5123,"count":828,"type":"VEC4"},{"bufferView":41,"componentType":5126,"count":828,"max":[1,0,0,0],"min":[1,0,0,0],"type":"VEC4"},{"bufferView":42,"componentType":5125,"count":2118,"type":"SCALAR"},{"name":"tree-oak-01-1","bufferView":43,"componentType":5126,"count":828,"max":[105.73263549804688,110.28668212890625,27.732864379882812],"min":[-132.86758422851562,-104.39350891113281,-186.5666046142578],"type":"VEC3"},{"name":"tree-oak-01-2","bufferView":44,"componentType":5126,"count":828,"max":[7.868762493133545,20.03386116027832,1.5108757019042969],"min":[-7.217963695526123,-7.4319167137146,-21.152286529541016],"type":"VEC3"},{"name":"Bind Matrices","bufferView":45,"componentType":5126,"count":3,"max":[0,1,1,0,1,0,1.0336725914236386E-14,0,1.0336725914236386E-14,1,0,0,-0,0,-0,1],"min":[-3.422852046242042E-08,-0,-3.019916334778827E-07,0,1,-3.422852046242042E-08,-0,0,0,-3.019916334778827E-07,-1.0000001192092896,0,-0,0,-0,1],"type":"MAT4"},{"bufferView":46,"componentType":5126,"count":439,"max":[73.5997543334961,62.36231231689453,131.3663330078125],"min":[-2.000819444656372,-76.68231964111328,-114.38966369628906],"type":"VEC3"},{"bufferView":47,"componentType":5126,"count":439,"max":[0.9985350966453552,0.9488509893417358],"min":[0.0021973326802253723,0.125980406999588],"type":"VEC2"},{"bufferView":48,"componentType":5126,"count":439,"max":[1,0.998073399066925,0.9997313618659973],"min":[-0.9998700022697449,-0.9934532642364502,-0.9993062615394592],"type":"VEC3"},{"bufferView":49,"componentType":5126,"count":439,"max":[0.9997313618659973,1,0.9987523555755615,1],"min":[-0.9997313618659973,-0.9993062615394592,-0.999462902545929,-1],"type":"VEC4"},{"bufferView":50,"componentType":5123,"count":439,"type":"VEC4"},{"bufferView":51,"componentType":5126,"count":439,"max":[1,0,0,0],"min":[1,0,0,0],"type":"VEC4"},{"bufferView":52,"componentType":5125,"count":1566,"type":"SCALAR"},{"name":"Bind Matrices","bufferView":53,"componentType":5126,"count":3,"max":[0,1,1,0,1,0,1.0336725914236386E-14,0,1.0336725914236386E-14,1,0,0,-0,0,-0,1],"min":[-3.422852046242042E-08,-0,-3.019916334778827E-07,0,1,-3.422852046242042E-08,-0,0,0,-3.019916334778827E-07,-1.0000001192092896,0,-0,0,-0,1],"type":"MAT4"},{"bufferView":54,"componentType":5126,"count":1339,"max":[243.76519775390625,276.37274169921875,695.7197875976562],"min":[-291.65350341796875,-285.9497375488281,-0.6876329779624939],"type":"VEC3"},{"bufferView":55,"componentType":5126,"count":1339,"max":[1.03515625,0.998046875],"min":[-0.0102386474609375,0.0015058517456054688],"type":"VEC2"},{"bufferView":56,"componentType":5126,"count":1339,"max":[0.9947522878646851,0.9998700022697449,1],"min":[-0.9997480511665344,-0.9974828362464905,-0.9969363212585449],"type":"VEC3"},{"bufferView":57,"componentType":5126,"count":1339,"max":[1,0.9997313618659973,0.9998700022697449,1],"min":[-0.999462902545929,-0.998073399066925,-0.9826616048812866,-1],"type":"VEC4"},{"bufferView":58,"componentType":5125,"count":2985,"type":"SCALAR"}],"animations":[{"name":"grow1","channels":[{"sampler":0,"target":{"node":1,"path":"rotation"}},{"sampler":1,"target":{"node":1,"path":"translation"}},{"sampler":2,"target":{"node":1,"path":"scale"}},{"sampler":3,"target":{"node":3,"path":"rotation"}},{"sampler":4,"target":{"node":3,"path":"translation"}},{"sampler":5,"target":{"node":3,"path":"scale"}},{"sampler":6,"target":{"node":2,"path":"rotation"}},{"sampler":7,"target":{"node":2,"path":"translation"}},{"sampler":8,"target":{"node":2,"path":"scale"}}],"samplers":[{"input":0,"output":1},{"input":2,"output":3},{"input":4,"output":5},{"input":6,"output":7},{"input":8,"output":9},{"input":10,"output":11},{"input":12,"output":13},{"input":14,"output":15},{"input":16,"output":17}]},{"name":"grow1_endState","channels":[{"sampler":0,"target":{"node":1,"path":"rotation"}},{"sampler":1,"target":{"node":1,"path":"translation"}},{"sampler":2,"target":{"node":1,"path":"scale"}},{"sampler":3,"target":{"node":3,"path":"rotation"}},{"sampler":4,"target":{"node":3,"path":"translation"}},{"sampler":5,"target":{"node":3,"path":"scale"}},{"sampler":6,"target":{"node":2,"path":"rotation"}},{"sampler":7,"target":{"node":2,"path":"translation"}},{"sampler":8,"target":{"node":2,"path":"scale"}}],"samplers":[{"input":18,"output":19},{"input":20,"output":21},{"input":22,"output":23},{"input":24,"output":25},{"input":26,"output":27},{"input":28,"output":29},{"input":30,"output":31},{"input":32,"output":33},{"input":34,"output":35}]}],"bufferViews":[{"buffer":0,"byteLength":120,"byteOffset":203628},{"buffer":0,"byteLength":480,"byteOffset":202044},{"buffer":0,"byteLength":120,"byteOffset":203748},{"buffer":0,"byteLength":360,"byteOffset":202524},{"buffer":0,"byteLength":4,"byteOffset":204188},{"buffer":0,"byteLength":12,"byteOffset":204068},{"buffer":0,"byteLength":4,"byteOffset":204192},{"buffer":0,"byteLength":16,"byteOffset":203988},{"buffer":0,"byteLength":4,"byteOffset":204196},{"buffer":0,"byteLength":12,"byteOffset":204080},{"buffer":0,"byteLength":4,"byteOffset":204200},{"buffer":0,"byteLength":12,"byteOffset":204092},{"buffer":0,"byteLength":4,"byteOffset":204204},{"buffer":0,"byteLength":16,"byteOffset":204004},{"buffer":0,"byteLength":120,"byteOffset":203868},{"buffer":0,"byteLength":360,"byteOffset":202884},{"buffer":0,"byteLength":4,"byteOffset":204208},{"buffer":0,"byteLength":12,"byteOffset":204104},{"buffer":0,"byteLength":4,"byteOffset":204212},{"buffer":0,"byteLength":16,"byteOffset":204020},{"buffer":0,"byteLength":4,"byteOffset":204216},{"buffer":0,"byteLength":12,"byteOffset":204116},{"buffer":0,"byteLength":4,"byteOffset":204220},{"buffer":0,"byteLength":12,"byteOffset":204128},{"buffer":0,"byteLength":4,"byteOffset":204224},{"buffer":0,"byteLength":16,"byteOffset":204036},{"buffer":0,"byteLength":4,"byteOffset":204228},{"buffer":0,"byteLength":12,"byteOffset":204140},{"buffer":0,"byteLength":4,"byteOffset":204232},{"buffer":0,"byteLength":12,"byteOffset":204152},{"buffer":0,"byteLength":4,"byteOffset":204236},{"buffer":0,"byteLength":16,"byteOffset":204052},{"buffer":0,"byteLength":4,"byteOffset":204240},{"buffer":0,"byteLength":12,"byteOffset":204164},{"buffer":0,"byteLength":4,"byteOffset":204244},{"buffer":0,"byteLength":12,"byteOffset":204176},{"buffer":0,"byteLength":9936,"byteOffset":102708,"target":34962},{"buffer":0,"byteLength":6624,"byteOffset":164972,"target":34962},{"buffer":0,"byteLength":9936,"byteOffset":112644,"target":34962},{"buffer":0,"byteLength":13248,"byteOffset":53560,"target":34962},{"buffer":0,"byteLength":6624,"byteOffset":171596,"target":34962},{"buffer":0,"byteLength":13248,"byteOffset":66808,"target":34962},{"buffer":0,"byteLength":8472,"byteOffset":142452,"target":34963},{"buffer":0,"byteLength":9936,"byteOffset":122580,"target":34962},{"buffer":0,"byteLength":9936,"byteOffset":132516,"target":34962},{"buffer":0,"byteLength":192,"byteOffset":203244},{"buffer":0,"byteLength":5268,"byteOffset":184484,"target":34962},{"buffer":0,"byteLength":3512,"byteOffset":195020,"target":34962},{"buffer":0,"byteLength":5268,"byteOffset":189752,"target":34962},{"buffer":0,"byteLength":7024,"byteOffset":150924,"target":34962},{"buffer":0,"byteLength":3512,"byteOffset":198532,"target":34962},{"buffer":0,"byteLength":7024,"byteOffset":157948,"target":34962},{"buffer":0,"byteLength":6264,"byteOffset":178220,"target":34963},{"buffer":0,"byteLength":192,"byteOffset":203436},{"buffer":0,"byteLength":16068,"byteOffset":21424,"target":34962},{"buffer":0,"byteLength":10712,"byteOffset":91996,"target":34962},{"buffer":0,"byteLength":16068,"byteOffset":37492,"target":34962},{"buffer":0,"byteLength":21424,"target":34962},{"buffer":0,"byteLength":11940,"byteOffset":80056,"target":34963}],"buffers":[{"byteLength":204248,"uri":"tree_oak_snow_01.bin"}],"images":[{"name":"tree_oak_leaves_00_color_psd_c6c1c88b.vtex","uri":"tree_oak_leaves_00_color_psd_c6c1c88b.png"},{"name":"tree_oak_leaves_00_normal_psd_9cd1e3a9.vtex","uri":"tree_oak_leaves_00_normal_psd_9cd1e3a9.png"},{"name":"tree_oak_leaves_00_refl_psd_e2ae2f2c.vtex","uri":"tree_oak_leaves_00_refl_psd_e2ae2f2c.png"}],"materials":[{"extras":{"baseColorTexture":{"index":0}},"name":"tree_oak_leaves_00","alphaCutoff":0.699999988079071,"alphaMode":"MASK","emissiveTexture":{"index":2},"normalTexture":{"index":1},"pbrMetallicRoughness":{"baseColorTexture":{"index":0},"metallicFactor":0}}],"meshes":[{"extras":{},"name":"tree_oak_snow_01.vmdl_c.tree_oak_01_model","primitives":[{"attributes":{"POSITION":36,"TEXCOORD_0":37,"NORMAL":38,"TANGENT":39,"JOINTS_0":40,"WEIGHTS_0":41},"indices":42,"material":0,"targets":[{"POSITION":43},{"POSITION":44}]}]},{"extras":{},"name":"tree_oak_snow_01.vmdl_c.tree_oak_01_stump_model","primitives":[{"attributes":{"POSITION":46,"TEXCOORD_0":47,"NORMAL":48,"TANGENT":49,"JOINTS_0":50,"WEIGHTS_0":51},"indices":52,"material":0}]},{"extras":{},"name":"tree_oak_snow_01.vmdl_c.tree_oak_01_inspector","primitives":[{"attributes":{"POSITION":54,"TEXCOORD_0":55,"NORMAL":56,"TANGENT":57},"indices":58,"material":0}]}],"nodes":[{"name":"tree_oak_snow_01.vmdl_c","children":[1,3],"matrix":[3.027916E-09,0,0.025399996,0,0.025399996,3.027916E-09,0,0,0,0.025399996,3.027916E-09,0,0,0,0,1]},{"name":"tree_oak_01_root","children":[2],"rotation":[0.5,0.5,0.5,0.5]},{"name":"tree_oak_01_joint1"},{"name":"tree_oak_01_stump_anim","rotation":[0.70710677,0.70710677,-1.0677015E-07,-1.0677015E-07]},{"name":"tree_oak_snow_01.vmdl_c.tree_oak_01_model","mesh":0,"skin":0},{"name":"tree_oak_snow_01.vmdl_c.tree_oak_01_stump_model","mesh":1,"skin":1},{"name":"tree_oak_snow_01.vmdl_c.tree_oak_01_inspector","matrix":[3.027916E-09,0,0.025399996,0,0.025399996,3.027916E-09,0,0,0,0.025399996,3.027916E-09,0,0,0,0,1],"mesh":2}],"samplers":[{"magFilter":9729,"minFilter":9987}],"scenes":[{"name":"tree_oak_snow_01.vmdl_c","nodes":[0,4,5,6]}],"skins":[{"inverseBindMatrices":45,"joints":[1,3,2]},{"inverseBindMatrices":53,"joints":[1,3,2]}],"textures":[{"name":"tree_oak_leaves_00_color_psd_c6c1c88b.vtex","sampler":0,"source":0},{"name":"tree_oak_leaves_00_normal_psd_9cd1e3a9.vtex","sampler":0,"source":1},{"name":"tree_oak_leaves_00_refl_psd_e2ae2f2c.vtex","sampler":0,"source":2}]}