{"asset":{"copyright":"","generator":"Source 2 Viewer 11.1.0.0 - https://valveresourceformat.github.io","version":"2.0"},"accessors":[{"bufferView":0,"componentType":5126,"count":1294,"max":[289.1891784667969,261.2679748535156,650.4078369140625],"min":[-300.2821960449219,-296.13861083984375,-9.567206382751465],"type":"VEC3"},{"bufferView":1,"componentType":5126,"count":1294,"max":[1.03515625,0.998046875],"min":[-0.0102386474609375,0.0015058517456054688],"type":"VEC2"},{"bufferView":2,"componentType":5126,"count":1294,"max":[0.9997313618659973,0.9934532642364502,0.9763441681861877],"min":[-0.988193154335022,-0.999462902545929,-0.9034824371337891],"type":"VEC3"},{"bufferView":3,"componentType":5126,"count":1294,"max":[0.9969363212585449,0.9988528490066528,0.9004334211349487,1],"min":[-0.9895864725112915,-0.9977096915245056,-0.9026519656181335,-1],"type":"VEC4"},{"bufferView":4,"componentType":5125,"count":2892,"type":"SCALAR"}],"bufferViews":[{"buffer":0,"byteLength":15528,"byteOffset":20704,"target":34962},{"buffer":0,"byteLength":10352,"byteOffset":63328,"target":34962},{"buffer":0,"byteLength":15528,"byteOffset":36232,"target":34962},{"buffer":0,"byteLength":20704,"target":34962},{"buffer":0,"byteLength":11568,"byteOffset":51760,"target":34963}],"buffers":[{"byteLength":73680,"uri":"tree_oak_02_sfm.bin"}],"images":[{"name":"tree_oak_leaves_00_color_psd_c6c1c88b.vtex","uri":"tree_oak_leaves_00_color_psd_c6c1c88b.png"},{"name":"tree_oak_leaves_00_normal_psd_9cd1e3a9.vtex","uri":"tree_oak_leaves_00_normal_psd_9cd1e3a9.png"},{"name":"tree_oak_leaves_00_refl_psd_e2ae2f2c.vtex","uri":"tree_oak_leaves_00_refl_psd_e2ae2f2c.png"}],"materials":[{"extras":{"baseColorTexture":{"index":0}},"name":"tree_oak_leaves_00","alphaCutoff":0.699999988079071,"alphaMode":"MASK","emissiveTexture":{"index":2},"normalTexture":{"index":1},"pbrMetallicRoughness":{"baseColorTexture":{"index":0},"metallicFactor":0}}],"meshes":[{"extras":{},"name":"tree_oak_02_sfm.vmdl_c.tree_oak_02_sfm_model","primitives":[{"attributes":{"POSITION":0,"TEXCOORD_0":1,"NORMAL":2,"TANGENT":3},"indices":4,"material":0}]}],"nodes":[{"name":"tree_oak_02_sfm.vmdl_c.tree_oak_02_sfm_model","matrix":[3.027916E-09,0,0.025399996,0,0.025399996,3.027916E-09,0,0,0,0.025399996,3.027916E-09,0,0,0,0,1],"mesh":0}],"samplers":[{"magFilter":9729,"minFilter":9987}],"scenes":[{"name":"tree_oak_02_sfm.vmdl_c","nodes":[0]}],"textures":[{"name":"tree_oak_leaves_00_color_psd_c6c1c88b.vtex","sampler":0,"source":0},{"name":"tree_oak_leaves_00_normal_psd_9cd1e3a9.vtex","sampler":0,"source":1},{"name":"tree_oak_leaves_00_refl_psd_e2ae2f2c.vtex","sampler":0,"source":2}]}