{"asset":{"copyright":"","generator":"Source 2 Viewer 11.1.0.0 - https://valveresourceformat.github.io","version":"2.0"},"accessors":[{"bufferView":0,"componentType":5126,"count":637,"max":[84.75487518310547,81.82261657714844,222.74844360351562],"min":[-83.75694274902344,-81.42247009277344,-1.0722712278366089],"type":"VEC3"},{"bufferView":1,"componentType":5126,"count":637,"max":[1.03515625,0.998046875],"min":[-0.0102386474609375,0.0009455680847167969],"type":"VEC2"},{"bufferView":2,"componentType":5126,"count":637,"max":[0.9993062615394592,0.9941523671150208,0.9998700022697449],"min":[-0.9881115555763245,-0.9993062615394592,-0.7693092226982117],"type":"VEC3"},{"bufferView":3,"componentType":5126,"count":637,"max":[0.999462902545929,0.9977096915245056,0.9969363212585449,1],"min":[-0.9998700022697449,-0.9960377216339111,-0.9663735628128052,-1],"type":"VEC4"},{"bufferView":4,"componentType":5123,"count":637,"type":"VEC4"},{"bufferView":5,"componentType":5126,"count":637,"max":[1,0,0,0],"min":[1,0,0,0],"type":"VEC4"},{"bufferView":6,"componentType":5125,"count":1830,"type":"SCALAR"},{"name":"Bind Matrices","bufferView":7,"componentType":5126,"count":1,"max":[0,-0,1,0,1,0,-0,0,0,1,0,0,-0,0,-0,1],"min":[0,-0,1,0,1,0,-0,0,0,1,0,0,-0,0,-0,1],"type":"MAT4"}],"bufferViews":[{"buffer":0,"byteLength":7644,"byteOffset":20384,"target":34962},{"buffer":0,"byteLength":5096,"byteOffset":42992,"target":34962},{"buffer":0,"byteLength":7644,"byteOffset":28028,"target":34962},{"buffer":0,"byteLength":10192,"target":34962},{"buffer":0,"byteLength":5096,"byteOffset":48088,"target":34962},{"buffer":0,"byteLength":10192,"byteOffset":10192,"target":34962},{"buffer":0,"byteLength":7320,"byteOffset":35672,"target":34963},{"buffer":0,"byteLength":64,"byteOffset":53184}],"buffers":[{"byteLength":53248,"uri":"tree_oak_00.bin"}],"images":[{"name":"tree_oak_leaves_00_color_psd_c6c1c88b.vtex","uri":"tree_oak_leaves_00_color_psd_c6c1c88b.png"},{"name":"tree_oak_leaves_00_normal_psd_9cd1e3a9.vtex","uri":"tree_oak_leaves_00_normal_psd_9cd1e3a9.png"},{"name":"tree_oak_leaves_00_refl_psd_e2ae2f2c.vtex","uri":"tree_oak_leaves_00_refl_psd_e2ae2f2c.png"}],"materials":[{"extras":{"baseColorTexture":{"index":0}},"name":"tree_oak_leaves_00","alphaCutoff":0.699999988079071,"alphaMode":"MASK","emissiveTexture":{"index":2},"normalTexture":{"index":1},"pbrMetallicRoughness":{"baseColorTexture":{"index":0},"metallicFactor":0}}],"meshes":[{"extras":{},"name":"tree_oak_00.vmdl_c.tree_oak_00_model","primitives":[{"attributes":{"POSITION":0,"TEXCOORD_0":1,"NORMAL":2,"TANGENT":3,"JOINTS_0":4,"WEIGHTS_0":5},"indices":6,"material":0}]}],"nodes":[{"name":"tree_oak_00.vmdl_c","children":[1],"matrix":[3.027916E-09,0,0.025399996,0,0.025399996,3.027916E-09,0,0,0,0.025399996,3.027916E-09,0,0,0,0,1]},{"name":"joint1","rotation":[0.5,0.5,0.5,0.5]},{"name":"tree_oak_00.vmdl_c.tree_oak_00_model","mesh":0,"skin":0}],"samplers":[{"magFilter":9729,"minFilter":9987}],"scenes":[{"name":"tree_oak_00.vmdl_c","nodes":[0,2]}],"skins":[{"inverseBindMatrices":7,"joints":[1]}],"textures":[{"name":"tree_oak_leaves_00_color_psd_c6c1c88b.vtex","sampler":0,"source":0},{"name":"tree_oak_leaves_00_normal_psd_9cd1e3a9.vtex","sampler":0,"source":1},{"name":"tree_oak_leaves_00_refl_psd_e2ae2f2c.vtex","sampler":0,"source":2}]}