{"asset":{"copyright":"","generator":"Source 2 Viewer 11.1.0.0 - https://valveresourceformat.github.io","version":"2.0"},"accessors":[{"bufferView":0,"componentType":5126,"count":1339,"max":[243.76519775390625,276.37274169921875,695.7197875976562],"min":[-291.65350341796875,-285.9497375488281,-0.6876329779624939],"type":"VEC3"},{"bufferView":1,"componentType":5126,"count":1339,"max":[1.03515625,0.998046875],"min":[-0.0102386474609375,0.0015058517456054688],"type":"VEC2"},{"bufferView":2,"componentType":5126,"count":1339,"max":[0.9947522878646851,0.9998700022697449,1],"min":[-0.9997480511665344,-0.9974828362464905,-0.9969363212585449],"type":"VEC3"},{"bufferView":3,"componentType":5126,"count":1339,"max":[1,0.9997313618659973,0.9998700022697449,1],"min":[-0.999462902545929,-0.998073399066925,-0.9826616048812866,-1],"type":"VEC4"},{"bufferView":4,"componentType":5125,"count":2985,"type":"SCALAR"}],"bufferViews":[{"buffer":0,"byteLength":16068,"byteOffset":21424,"target":34962},{"buffer":0,"byteLength":10712,"byteOffset":65500,"target":34962},{"buffer":0,"byteLength":16068,"byteOffset":37492,"target":34962},{"buffer":0,"byteLength":21424,"target":34962},{"buffer":0,"byteLength":11940,"byteOffset":53560,"target":34963}],"buffers":[{"byteLength":76212,"uri":"tree_oak_01_inspector.bin"}],"images":[{"name":"tree_oak_leaves_00_color_psd_c6c1c88b.vtex","uri":"tree_oak_leaves_00_color_psd_c6c1c88b.png"},{"name":"tree_oak_leaves_00_normal_psd_9cd1e3a9.vtex","uri":"tree_oak_leaves_00_normal_psd_9cd1e3a9.png"},{"name":"tree_oak_leaves_00_refl_psd_e2ae2f2c.vtex","uri":"tree_oak_leaves_00_refl_psd_e2ae2f2c.png"}],"materials":[{"extras":{"baseColorTexture":{"index":0}},"name":"tree_oak_leaves_00","alphaCutoff":0.699999988079071,"alphaMode":"MASK","emissiveTexture":{"index":2},"normalTexture":{"index":1},"pbrMetallicRoughness":{"baseColorTexture":{"index":0},"metallicFactor":0}}],"meshes":[{"extras":{},"name":"tree_oak_01_inspector.vmdl_c.tree_oak_01_inspector","primitives":[{"attributes":{"POSITION":0,"TEXCOORD_0":1,"NORMAL":2,"TANGENT":3},"indices":4,"material":0}]}],"nodes":[{"name":"tree_oak_01_inspector.vmdl_c.tree_oak_01_inspector","matrix":[3.027916E-09,0,0.025399996,0,0.025399996,3.027916E-09,0,0,0,0.025399996,3.027916E-09,0,0,0,0,1],"mesh":0}],"samplers":[{"magFilter":9729,"minFilter":9987}],"scenes":[{"name":"tree_oak_01_inspector.vmdl_c","nodes":[0]}],"textures":[{"name":"tree_oak_leaves_00_color_psd_c6c1c88b.vtex","sampler":0,"source":0},{"name":"tree_oak_leaves_00_normal_psd_9cd1e3a9.vtex","sampler":0,"source":1},{"name":"tree_oak_leaves_00_refl_psd_e2ae2f2c.vtex","sampler":0,"source":2}]}